<svg xmlns="http://www.w3.org/2000/svg" id="my-svg" width="100%" aria-roledescription="flowchart-v2" class="flowchart" style="font-size:15px;fill:#333;max-width:1363.67px;background-color:transparent" viewBox="0 0 1363.674 85"><style><![CDATA[@keyframes edge-animation-frame{0%{stroke-dashoffset:0}}@keyframes dash{to{stroke-dashoffset:0}}#my-svg .edge-thickness-normal{stroke-width:1px}#my-svg .edge-pattern-solid{stroke-dasharray:0}#my-svg .marker{fill:#475569;stroke:#475569}#my-svg .marker.cross{stroke:#475569}#my-svg svg{font-size:15px}#my-svg p{margin:0}#my-svg .label{color:#333}#my-svg span{fill:#333;color:#333}#my-svg .node circle,#my-svg .node path,#my-svg .node rect{fill:#fff4dd;stroke:#edb;stroke-width:1px}#my-svg .flowchart-link{stroke:#475569;fill:none}#my-svg .edgeLabel,#my-svg .node .label{text-align:center}#my-svg .edgeLabel,#my-svg .edgeLabel p,#my-svg .edgeLabel rect{background-color:#f8fafc}#my-svg .edgeLabel rect{opacity:.5;fill:#f8fafc}#my-svg .labelBkg{background-color:rgba(248,250,252,.5)}#my-svg [data-look=neo].node circle,#my-svg [data-look=neo].node rect{stroke:url(#my-svg-gradient);filter:drop-shadow(1px 2px 2px #b9b9b9)}#my-svg [data-look=neo].node path{stroke:url(#my-svg-gradient);stroke-width:1px}#my-svg [data-look=neo].node .outer-path{filter:drop-shadow(1px 2px 2px #b9b9b9)}#my-svg :root{--mermaid-font-family:"trebuchet ms",verdana,arial,sans-serif}#my-svg .t1>*{fill:#dbeafe!important;stroke:#3b82f6!important;color:#1e40af!important}#my-svg .cert>*,#my-svg .t1>*{stroke-width:2.5px!important;font-weight:600!important}#my-svg .t2>*{fill:#ede9fe!important;stroke:#8b5cf6!important;color:#5b21b6!important}#my-svg .t2>*,#my-svg .t3>*,#my-svg .t4>*{stroke-width:2.5px!important;font-weight:600!important}#my-svg .t3>*{fill:#e0e7ff!important;stroke:#6366f1!important;color:#312e81!important}#my-svg .t4>*{fill:#fef3c7!important;stroke:#f59e0b!important;color:#92400e!important}#my-svg .cert>*{fill:#d1fae5!important;stroke:#10b981!important;color:#065f46!important}]]></style><marker id="my-svg_flowchart-v2-pointEnd" class="marker flowchart-v2" markerHeight="8" markerUnits="userSpaceOnUse" markerWidth="8" orient="auto" refX="5" refY="5" viewBox="0 0 10 10"><path d="m0 0 10 5-10 5z" class="arrowMarkerPath" style="stroke-width:1;stroke-dasharray:1,0"/></marker><marker id="my-svg_flowchart-v2-pointStart" class="marker flowchart-v2" markerHeight="8" markerUnits="userSpaceOnUse" markerWidth="8" orient="auto" refX="4.5" refY="5" viewBox="0 0 10 10"><path d="m0 5 10 5V0z" class="arrowMarkerPath" style="stroke-width:1;stroke-dasharray:1,0"/></marker><marker id="my-svg_flowchart-v2-pointEnd-margin" class="marker flowchart-v2" markerHeight="14" markerUnits="userSpaceOnUse" markerWidth="10.5" orient="auto" refX="11.5" refY="7" viewBox="0 0 11.5 14"><path d="m0 0 11.5 7L0 14z" class="arrowMarkerPath" style="stroke-width:0;stroke-dasharray:1,0"/></marker><marker id="my-svg_flowchart-v2-pointStart-margin" class="marker flowchart-v2" markerHeight="14" markerUnits="userSpaceOnUse" markerWidth="11.5" orient="auto" refX="1" refY="7" viewBox="0 0 11.5 14"><path d="m0 7 11.5 7V0z" class="arrowMarkerPath" style="stroke-width:0;stroke-dasharray:1,0"/></marker><marker id="my-svg_flowchart-v2-circleEnd" class="marker flowchart-v2" markerHeight="11" markerUnits="userSpaceOnUse" markerWidth="11" orient="auto" refX="11" refY="5" viewBox="0 0 10 10"><circle cx="5" cy="5" r="5" class="arrowMarkerPath" style="stroke-width:1;stroke-dasharray:1,0"/></marker><marker id="my-svg_flowchart-v2-circleStart" class="marker flowchart-v2" markerHeight="11" markerUnits="userSpaceOnUse" markerWidth="11" orient="auto" refX="-1" refY="5" viewBox="0 0 10 10"><circle cx="5" cy="5" r="5" class="arrowMarkerPath" style="stroke-width:1;stroke-dasharray:1,0"/></marker><marker id="my-svg_flowchart-v2-circleEnd-margin" class="marker flowchart-v2" markerHeight="14" markerUnits="userSpaceOnUse" markerWidth="14" orient="auto" refX="12.25" refY="5" viewBox="0 0 10 10"><circle cx="5" cy="5" r="5" class="arrowMarkerPath" style="stroke-width:0;stroke-dasharray:1,0"/></marker><marker id="my-svg_flowchart-v2-circleStart-margin" class="marker flowchart-v2" markerHeight="14" markerUnits="userSpaceOnUse" markerWidth="14" orient="auto" refX="-2" refY="5" viewBox="0 0 10 10"><circle cx="5" cy="5" r="5" class="arrowMarkerPath" style="stroke-width:0;stroke-dasharray:1,0"/></marker><marker id="my-svg_flowchart-v2-crossEnd" class="marker cross flowchart-v2" markerHeight="11" markerUnits="userSpaceOnUse" markerWidth="11" orient="auto" refX="12" refY="5.2" viewBox="0 0 11 11"><path d="m1 1 9 9m0-9-9 9" class="arrowMarkerPath" style="stroke-width:2;stroke-dasharray:1,0"/></marker><marker id="my-svg_flowchart-v2-crossStart" class="marker cross flowchart-v2" markerHeight="11" markerUnits="userSpaceOnUse" markerWidth="11" orient="auto" refX="-1" refY="5.2" viewBox="0 0 11 11"><path d="m1 1 9 9m0-9-9 9" class="arrowMarkerPath" style="stroke-width:2;stroke-dasharray:1,0"/></marker><marker id="my-svg_flowchart-v2-crossEnd-margin" class="marker cross flowchart-v2" markerHeight="12" markerUnits="userSpaceOnUse" markerWidth="12" orient="auto" refX="17.7" refY="7.5" viewBox="0 0 15 15"><path d="m1 1 13 13M1 14 14 1" class="arrowMarkerPath" style="stroke-width:2.5"/></marker><marker id="my-svg_flowchart-v2-crossStart-margin" class="marker cross flowchart-v2" markerHeight="12" markerUnits="userSpaceOnUse" markerWidth="12" orient="auto" refX="-3.5" refY="7.5" viewBox="0 0 15 15"><path d="m1 1 13 13M1 14 14 1" class="arrowMarkerPath" style="stroke-width:2.5;stroke-dasharray:1,0"/></marker><g class="root"><g class="edgePaths"><path id="my-svg-L_T1_T2_0" marker-end="url(#my-svg_flowchart-v2-pointEnd__475569)" d="M122 42.5h181.047" class="edge-thickness-normal edge-pattern-solid edge-thickness-normal edge-pattern-solid flowchart-link" data-edge="true" data-et="edge" data-id="L_T1_T2_0" data-look="classic" data-points="W3sieCI6MTIyLCJ5Ijo0Mi41fSx7IngiOjIxNC41MjM0Mzc1LCJ5Ijo0Mi41fSx7IngiOjMwNy4wNDY4NzUsInkiOjQyLjV9XQ==" style="stroke:#475569;stroke-width:2px"/><path id="my-svg-L_T2_T3_0" marker-end="url(#my-svg_flowchart-v2-pointEnd__475569)" d="M414.406 42.5h255.297" class="edge-thickness-normal edge-pattern-solid edge-thickness-normal edge-pattern-solid flowchart-link" data-edge="true" data-et="edge" data-id="L_T2_T3_0" data-look="classic" data-points="W3sieCI6NDE0LjQwNjI1LCJ5Ijo0Mi41fSx7IngiOjU0NC4wNTQ2ODc1LCJ5Ijo0Mi41fSx7IngiOjY3My43MDMxMjUsInkiOjQyLjV9XQ==" style="stroke:#475569;stroke-width:2px"/><path id="my-svg-L_T3_T4_0" marker-end="url(#my-svg_flowchart-v2-pointEnd__475569)" d="M761.891 42.5h245.25" class="edge-thickness-normal edge-pattern-solid edge-thickness-normal edge-pattern-solid flowchart-link" data-edge="true" data-et="edge" data-id="L_T3_T4_0" data-look="classic" data-points="W3sieCI6NzYxLjg5MDYyNSwieSI6NDIuNX0seyJ4Ijo4ODYuNTE1NjI1LCJ5Ijo0Mi41fSx7IngiOjEwMTEuMTQwNjI1LCJ5Ijo0Mi41fV0=" style="stroke:#475569;stroke-width:2px"/><path id="my-svg-L_T4_C_0" marker-end="url(#my-svg_flowchart-v2-pointEnd__475569)" d="M1099.328 42.5h10.908c10.907 0 32.722 0 53.954.078 21.232.079 41.88.235 52.205.313l10.324.079" class="edge-thickness-normal edge-pattern-solid edge-thickness-normal edge-pattern-solid flowchart-link" data-edge="true" data-et="edge" data-id="L_T4_C_0" data-look="classic" data-points="W3sieCI6MTA5OS4zMjgxMjUsInkiOjQyLjV9LHsieCI6MTE2NC43NzM0Mzc1LCJ5Ijo0Mi41fSx7IngiOjEyMzAuNzE4NzQ5OTk5OTk5LCJ5Ijo0M31d" style="stroke:#475569;stroke-width:2px"/></g><g class="edgeLabels"><g class="edgeLabel"><foreignObject width="115.047" height="45" class="label" data-id="L_T1_T2_0" transform="translate(157 20)"><div xmlns="http://www.w3.org/1999/xhtml" class="labelBkg" style="display:table-cell;white-space:nowrap;line-height:1.5;max-width:200px;text-align:center"><span class="edgeLabel"><p>exit: run your first<br/>in-session loop</p></span></div></foreignObject></g><g class="edgeLabel"><foreignObject width="189.297" height="45" class="label" data-id="L_T2_T3_0" transform="translate(449.406 20)"><div xmlns="http://www.w3.org/1999/xhtml" class="labelBkg" style="display:table-cell;white-space:nowrap;line-height:1.5;max-width:200px;text-align:center"><span class="edgeLabel"><p>exit: a loop with a provable<br/>stop and a separate checker</p></span></div></foreignObject></g><g class="edgeLabel"><foreignObject width="179.25" height="45" class="label" data-id="L_T3_T4_0" transform="translate(796.89 20)"><div xmlns="http://www.w3.org/1999/xhtml" class="labelBkg" style="display:table-cell;white-space:nowrap;line-height:1.5;max-width:200px;text-align:center"><span class="edgeLabel"><p>exit: the same six-part loop<br/>shipped in two tools</p></span></div></foreignObject></g><g class="edgeLabel"><foreignObject width="60.891" height="22.5" class="label" data-id="L_T4_C_0" transform="translate(1134.328 31.25)"><div xmlns="http://www.w3.org/1999/xhtml" class="labelBkg" style="display:table-cell;white-space:nowrap;line-height:1.5;max-width:200px;text-align:center"><span class="edgeLabel"><p>capstone</p></span></div></foreignObject></g></g><g class="nodes"><g id="my-svg-flowchart-T1-0" class="node default t1" data-look="classic" transform="translate(65 42.5)"><rect width="114" height="69" x="-57" y="-34.5" class="basic label-container" rx="5" ry="5" style="fill:#dbeafe!important;stroke:#3b82f6!important;stroke-width:2.5px!important"/><g class="label" style="color:#1e40af!important;font-weight:600!important" transform="translate(-45 -22.5)"><rect/><foreignObject width="90" height="45"><div xmlns="http://www.w3.org/1999/xhtml" style="color:#1e40af!important;font-weight:600!important;display:table-cell;white-space:nowrap;line-height:1.5;max-width:200px;text-align:center"><span class="nodeLabel" style="fill:#dbeafe!important;stroke:#3b82f6!important;stroke-width:2.5px!important;color:#1e40af!important;font-weight:600!important"><p><b>T1</b><br/>Foundations</p></span></div></foreignObject></g></g><g id="my-svg-flowchart-T2-1" class="node default t2" data-look="classic" transform="translate(360.727 42.5)"><rect width="107.359" height="69" x="-53.68" y="-34.5" class="basic label-container" rx="5" ry="5" style="fill:#ede9fe!important;stroke:#8b5cf6!important;stroke-width:2.5px!important"/><g class="label" style="color:#5b21b6!important;font-weight:600!important" transform="translate(-41.68 -22.5)"><rect/><foreignObject width="83.359" height="45"><div xmlns="http://www.w3.org/1999/xhtml" style="color:#5b21b6!important;font-weight:600!important;display:table-cell;white-space:nowrap;line-height:1.5;max-width:200px;text-align:center"><span class="nodeLabel" style="fill:#ede9fe!important;stroke:#8b5cf6!important;stroke-width:2.5px!important;color:#5b21b6!important;font-weight:600!important"><p><b>T2</b><br/>Practitioner</p></span></div></foreignObject></g></g><g id="my-svg-flowchart-T3-3" class="node default t3" data-look="classic" transform="translate(717.797 42.5)"><rect width="88.188" height="69" x="-44.094" y="-34.5" class="basic label-container" rx="5" ry="5" style="fill:#e0e7ff!important;stroke:#6366f1!important;stroke-width:2.5px!important"/><g class="label" style="color:#312e81!important;font-weight:600!important" transform="translate(-32.094 -22.5)"><rect/><foreignObject width="64.188" height="45"><div xmlns="http://www.w3.org/1999/xhtml" style="color:#312e81!important;font-weight:600!important;display:table-cell;white-space:nowrap;line-height:1.5;max-width:200px;text-align:center"><span class="nodeLabel" style="fill:#e0e7ff!important;stroke:#6366f1!important;stroke-width:2.5px!important;color:#312e81!important;font-weight:600!important"><p><b>T3</b><br/>Engineer</p></span></div></foreignObject></g></g><g id="my-svg-flowchart-T4-5" class="node default t4" data-look="classic" transform="translate(1055.234 42.5)"><rect width="88.188" height="69" x="-44.094" y="-34.5" class="basic label-container" rx="5" ry="5" style="fill:#fef3c7!important;stroke:#f59e0b!important;stroke-width:2.5px!important"/><g class="label" style="color:#92400e!important;font-weight:600!important" transform="translate(-32.094 -22.5)"><rect/><foreignObject width="64.188" height="45"><div xmlns="http://www.w3.org/1999/xhtml" style="color:#92400e!important;font-weight:600!important;display:table-cell;white-space:nowrap;line-height:1.5;max-width:200px;text-align:center"><span class="nodeLabel" style="fill:#fef3c7!important;stroke:#f59e0b!important;stroke-width:2.5px!important;color:#92400e!important;font-weight:600!important"><p><b>T4</b><br/>Ultra-Pro</p></span></div></foreignObject></g></g><g id="my-svg-flowchart-C-7" class="node default cert" data-look="classic"><g class="basic label-container outer-path"><path stroke="none" stroke-width="0" d="M-34.242-28.5h68.484l1.826.059 1.819.175 1.803.292c.444.1.887.202 1.781.406l1.752.52 1.714.63 1.67.74 1.62.845 1.563.947 1.498 1.046 1.429 1.139 1.352 1.228 1.271 1.312 1.184 1.392c.247.33.494.66 1.093 1.464.32.492.64.984.997 1.53l.896 1.593.793 1.646.686 1.693.575 1.734.464 1.767.349 1.793.233 1.812.118 1.824V.913l-.118 1.824-.233 1.812-.35 1.793-.463 1.767-.575 1.734-.686 1.693-.793 1.646-.896 1.592-.997 1.531-1.093 1.464-1.184 1.392-1.27 1.312-1.353 1.228-1.429 1.14-1.498 1.045-1.562.947-1.62.845c-.634.28-1.267.56-1.67.74-.492.18-.983.36-1.715.63l-1.752.52-1.78.406-1.804.292-1.819.175-1.826.059h-68.484c-.48-.015-.96-.03-1.826-.059l-1.819-.175-1.803-.292-1.781-.406-1.752-.52-1.714-.63-1.67-.74-1.62-.845-1.563-.947-1.498-1.046-1.429-1.139-1.352-1.228-1.271-1.312-1.184-1.392-1.093-1.464-.997-1.53-.896-1.593-.793-1.646-.686-1.693-.575-1.734-.464-1.767-.349-1.793-.233-1.812-.118-1.824V-.913l.118-1.824.233-1.812.35-1.793.463-1.767.575-1.734.686-1.693.793-1.646.896-1.592.997-1.531 1.093-1.464 1.184-1.392 1.27-1.312c.31-.28.62-.561 1.353-1.228l1.429-1.14 1.498-1.045 1.562-.947 1.62-.845c.532-.235 1.064-.47 1.67-.74.63-.23 1.26-.462 1.715-.63l1.752-.52 1.78-.406 1.804-.292c.405-.04.81-.078 1.819-.175l1.826-.059" style="fill:#d1fae5!important;stroke:#10b981!important;stroke-width:2.5px!important" transform="translate(1292.946 42.5)"/><path fill="none" stroke-dasharray="0 0" stroke-width="2.5" d="M-34.242-28.5h68.484m-68.484 0h68.484m0 0 1.826.059m-1.826-.059 1.826.059m0 0 1.819.175m-1.819-.175 1.819.175m0 0 1.803.292m-1.803-.292 1.803.292m0 0 1.781.406m-1.78-.406 1.78.406m0 0 1.752.52m-1.752-.52 1.752.52m0 0 1.714.63m-1.714-.63 1.714.63m0 0 1.67.74m-1.67-.74 1.67.74m0 0 1.62.845m-1.62-.845 1.62.845m0 0 1.563.947m-1.562-.947 1.562.947m0 0 1.498 1.046m-1.498-1.046 1.498 1.046m0 0 1.429 1.139m-1.429-1.14 1.429 1.14m0 0 1.352 1.228m-1.352-1.228 1.352 1.228m0 0 1.271 1.312m-1.27-1.312 1.27 1.312m0 0 1.184 1.392m-1.184-1.392 1.184 1.392m0 0 1.093 1.464m-1.093-1.464 1.093 1.464m0 0 .997 1.53m-.997-1.53.997 1.53m0 0 .896 1.593m-.896-1.592.896 1.592m0 0c.165.34.329.682.793 1.646m-.793-1.646.793 1.646m0 0 .686 1.693m-.686-1.693.686 1.693m0 0 .575 1.734m-.575-1.734.575 1.734m0 0c.156.592.31 1.185.464 1.767m-.464-1.767.464 1.767m0 0 .349 1.793m-.35-1.793.35 1.793m0 0 .233 1.812m-.233-1.812.233 1.812m0 0 .118 1.824m-.118-1.824.118 1.824m0 0V.913m0-1.826V.913m0 0-.118 1.824m.118-1.824-.118 1.824m0 0-.233 1.812m.233-1.812-.233 1.812m0 0c-.13.67-.26 1.339-.35 1.793m.35-1.793-.35 1.793m0 0-.463 1.767m.464-1.767-.464 1.767m0 0-.575 1.734m.575-1.734-.575 1.734m0 0-.686 1.693m.686-1.693-.686 1.693m0 0-.793 1.646m.793-1.646-.793 1.646m0 0-.896 1.592m.896-1.592-.896 1.592m0 0-.997 1.531m.997-1.53-.997 1.53m0 0-1.093 1.464m1.093-1.464-1.093 1.464m0 0-1.184 1.392m1.184-1.392-1.184 1.392m0 0-1.27 1.312m1.27-1.312-1.27 1.312m0 0-1.353 1.228m1.352-1.228-1.352 1.228m0 0-1.429 1.14m1.429-1.14-1.429 1.14m0 0-1.498 1.045m1.498-1.046-1.498 1.046m0 0-1.562.947m1.562-.947-1.562.947m0 0-1.62.845m1.62-.845-1.62.845m0 0-1.67.74m1.67-.74-1.67.74m0 0-1.715.63m1.714-.63-1.714.63m0 0-1.752.52m1.752-.52-1.752.52m0 0-1.78.406m1.78-.406-1.78.406m0 0-1.804.292m1.803-.292-1.803.292m0 0-1.819.175m1.819-.175-1.819.175m0 0-1.826.059m1.826-.059-1.826.059m0 0h-68.484m68.484 0h-68.484m0 0-1.826-.059m1.826.059-1.826-.059m0 0-1.819-.175m1.819.175-1.819-.175m0 0-1.803-.292m1.803.292-1.803-.292m0 0-1.781-.406m1.78.406-1.78-.406m0 0-1.752-.52m1.752.52-1.752-.52m0 0-1.714-.63m1.714.63-1.714-.63m0 0-1.67-.74m1.67.74c-.337-.15-.674-.3-1.67-.74m0 0-1.62-.845m1.62.845-1.62-.845m0 0-1.563-.947m1.562.947-1.562-.947m0 0-1.498-1.046m1.498 1.046-1.498-1.046m0 0-1.429-1.139m1.429 1.14-1.429-1.14m0 0-1.352-1.228m1.352 1.228-1.352-1.228m0 0-1.271-1.312m1.27 1.312-1.27-1.312m0 0-1.184-1.392m1.184 1.392-1.184-1.392m0 0-1.093-1.464m1.093 1.464-1.093-1.464m0 0-.997-1.53m.997 1.53-.997-1.53m0 0-.896-1.593m.896 1.592-.896-1.592m0 0-.793-1.646m.793 1.646-.793-1.646m0 0-.686-1.693m.686 1.693-.686-1.693m0 0-.575-1.734m.575 1.734-.575-1.734m0 0-.464-1.767m.464 1.767-.464-1.767m0 0-.349-1.793m.35 1.793-.35-1.793m0 0-.233-1.812m.233 1.812-.233-1.812m0 0-.118-1.824m.118 1.824-.118-1.824m0 0V-.913m0 1.826V-.913m0 0c.03-.448.058-.895.118-1.824m-.118 1.824.118-1.824m0 0 .233-1.812m-.233 1.812.233-1.812m0 0 .35-1.793m-.35 1.793.35-1.793m0 0 .463-1.767m-.464 1.767.464-1.767m0 0 .575-1.734m-.575 1.734.575-1.734m0 0 .686-1.693m-.686 1.693.686-1.693m0 0 .793-1.646m-.793 1.646.793-1.646m0 0 .896-1.592m-.896 1.592.896-1.592m0 0 .997-1.531m-.997 1.53.997-1.53m0 0 1.093-1.464m-1.093 1.464 1.093-1.464m0 0 1.184-1.392m-1.184 1.392 1.184-1.392m0 0 1.27-1.312m-1.27 1.312 1.27-1.312m0 0 1.353-1.228m-1.352 1.228 1.352-1.228m0 0 1.429-1.14m-1.429 1.14 1.429-1.14m0 0 1.498-1.045m-1.498 1.046 1.498-1.046m0 0 1.562-.947m-1.562.947 1.562-.947m0 0 1.62-.845m-1.62.845 1.62-.845m0 0 1.67-.74m-1.67.74c.66-.291 1.318-.583 1.67-.74m0 0 1.715-.63m-1.714.63 1.714-.63m0 0 1.752-.52m-1.752.52 1.752-.52m0 0 1.78-.406m-1.78.406 1.78-.406m0 0 1.804-.292m-1.803.292 1.803-.292m0 0 1.819-.175m-1.819.175 1.819-.175m0 0 1.826-.059m-1.826.059 1.826-.059m0 0" style="fill:#d1fae5!important;stroke:#10b981!important;stroke-width:2.5px!important" transform="translate(1292.946 42.5)"/></g><g class="label" style="color:#065f46!important;font-weight:600!important" transform="translate(1243.33 20)"><rect/><foreignObject width="99.234" height="45"><div xmlns="http://www.w3.org/1999/xhtml" style="color:#065f46!important;font-weight:600!important;display:table-cell;white-space:nowrap;line-height:1.5;max-width:200px;text-align:center"><span class="nodeLabel" style="fill:#d1fae5!important;stroke:#10b981!important;stroke-width:2.5px!important;color:#065f46!important;font-weight:600!important"><p>🎖 Loop Ready<br/>certification</p></span></div></foreignObject></g></g></g></g><marker id="my-svg_flowchart-v2-pointEnd__475569" class="marker flowchart-v2" markerHeight="8" markerUnits="userSpaceOnUse" markerWidth="8" orient="auto" refX="5" refY="5" viewBox="0 0 10 10"><path d="m0 0 10 5-10 5z" class="arrowMarkerPath" style="stroke-width:1;stroke-dasharray:1,0"/></marker><defs><filter id="my-svg-drop-shadow" width="130%" height="130%"><feDropShadow dx="4" dy="4" flood-color="#000" flood-opacity=".06" stdDeviation="0"/></filter></defs><defs><filter id="my-svg-drop-shadow-small" width="150%" height="150%"><feDropShadow dx="2" dy="2" flood-color="#000" flood-opacity=".06" stdDeviation="0"/></filter></defs><linearGradient id="my-svg-gradient" x1="0%" x2="100%" y1="0%" y2="0%" gradientUnits="objectBoundingBox"><stop offset="0%" stop-color="hsl(40.5882352941, 60%, 83.3333333333%)"/><stop offset="100%" stop-color="hsl(-79.4117647059, 60%, 83.3333333333%)"/></linearGradient></svg>