<svg xmlns="http://www.w3.org/2000/svg" id="my-svg" width="100%" aria-roledescription="flowchart-v2" class="flowchart" style="font-size:15px;fill:#333;max-width:559.797px;background-color:transparent" viewBox="0 0 559.797 222.527"><style><![CDATA[@keyframes edge-animation-frame{0%{stroke-dashoffset:0}}@keyframes dash{to{stroke-dashoffset:0}}#my-svg .edge-thickness-normal{stroke-width:1px}#my-svg .edge-pattern-solid{stroke-dasharray:0}#my-svg .marker{fill:#475569;stroke:#475569}#my-svg .marker.cross{stroke:#475569}#my-svg svg{font-size:15px}#my-svg p{margin:0}#my-svg .label{color:#333}#my-svg span{fill:#333;color:#333}#my-svg .node circle,#my-svg .node path,#my-svg .node rect{fill:#fff4dd;stroke:#edb;stroke-width:1px}#my-svg .flowchart-link{stroke:#475569;fill:none}#my-svg .edgeLabel,#my-svg .node .label{text-align:center}#my-svg .edgeLabel,#my-svg .edgeLabel p,#my-svg .edgeLabel rect{background-color:#f8fafc}#my-svg .edgeLabel rect{opacity:.5;fill:#f8fafc}#my-svg .labelBkg{background-color:rgba(248,250,252,.5)}#my-svg [data-look=neo].node circle,#my-svg [data-look=neo].node rect{stroke:url(#my-svg-gradient);filter:drop-shadow(1px 2px 2px #b9b9b9)}#my-svg [data-look=neo].node path{stroke:url(#my-svg-gradient);stroke-width:1px}#my-svg [data-look=neo].node .outer-path{filter:drop-shadow(1px 2px 2px #b9b9b9)}#my-svg :root{--mermaid-font-family:"trebuchet ms",verdana,arial,sans-serif}#my-svg .limit>*{stroke-width:2.5px!important;font-weight:600!important}#my-svg .step>*{fill:#e0e7ff!important;stroke:#6366f1!important;color:#312e81!important}#my-svg .step>*,#my-svg .warn>*,#my-svg .win>*{stroke-width:2.5px!important;font-weight:600!important}#my-svg .limit>*{fill:#ffe4e6!important;stroke:#f43f5e!important;color:#9f1239!important}#my-svg .warn>*{fill:#fef3c7!important;stroke:#f59e0b!important;color:#92400e!important}#my-svg .win>*{fill:#ccfbf1!important;stroke:#14b8a6!important;color:#115e59!important}]]></style><marker id="my-svg_flowchart-v2-pointEnd" class="marker flowchart-v2" markerHeight="8" markerUnits="userSpaceOnUse" markerWidth="8" orient="auto" refX="5" refY="5" viewBox="0 0 10 10"><path d="m0 0 10 5-10 5z" class="arrowMarkerPath" style="stroke-width:1;stroke-dasharray:1,0"/></marker><marker id="my-svg_flowchart-v2-pointStart" class="marker flowchart-v2" markerHeight="8" markerUnits="userSpaceOnUse" markerWidth="8" orient="auto" refX="4.5" refY="5" viewBox="0 0 10 10"><path d="m0 5 10 5V0z" class="arrowMarkerPath" style="stroke-width:1;stroke-dasharray:1,0"/></marker><marker id="my-svg_flowchart-v2-pointEnd-margin" class="marker flowchart-v2" markerHeight="14" markerUnits="userSpaceOnUse" markerWidth="10.5" orient="auto" refX="11.5" refY="7" viewBox="0 0 11.5 14"><path d="m0 0 11.5 7L0 14z" class="arrowMarkerPath" style="stroke-width:0;stroke-dasharray:1,0"/></marker><marker id="my-svg_flowchart-v2-pointStart-margin" class="marker flowchart-v2" markerHeight="14" markerUnits="userSpaceOnUse" markerWidth="11.5" orient="auto" refX="1" refY="7" viewBox="0 0 11.5 14"><path d="m0 7 11.5 7V0z" class="arrowMarkerPath" style="stroke-width:0;stroke-dasharray:1,0"/></marker><marker id="my-svg_flowchart-v2-circleEnd" class="marker flowchart-v2" markerHeight="11" markerUnits="userSpaceOnUse" markerWidth="11" orient="auto" refX="11" refY="5" viewBox="0 0 10 10"><circle cx="5" cy="5" r="5" class="arrowMarkerPath" style="stroke-width:1;stroke-dasharray:1,0"/></marker><marker id="my-svg_flowchart-v2-circleStart" class="marker flowchart-v2" markerHeight="11" markerUnits="userSpaceOnUse" markerWidth="11" orient="auto" refX="-1" refY="5" viewBox="0 0 10 10"><circle cx="5" cy="5" r="5" class="arrowMarkerPath" style="stroke-width:1;stroke-dasharray:1,0"/></marker><marker id="my-svg_flowchart-v2-circleEnd-margin" class="marker flowchart-v2" markerHeight="14" markerUnits="userSpaceOnUse" markerWidth="14" orient="auto" refX="12.25" refY="5" viewBox="0 0 10 10"><circle cx="5" cy="5" r="5" class="arrowMarkerPath" style="stroke-width:0;stroke-dasharray:1,0"/></marker><marker id="my-svg_flowchart-v2-circleStart-margin" class="marker flowchart-v2" markerHeight="14" markerUnits="userSpaceOnUse" markerWidth="14" orient="auto" refX="-2" refY="5" viewBox="0 0 10 10"><circle cx="5" cy="5" r="5" class="arrowMarkerPath" style="stroke-width:0;stroke-dasharray:1,0"/></marker><marker id="my-svg_flowchart-v2-crossEnd" class="marker cross flowchart-v2" markerHeight="11" markerUnits="userSpaceOnUse" markerWidth="11" orient="auto" refX="12" refY="5.2" viewBox="0 0 11 11"><path d="m1 1 9 9m0-9-9 9" class="arrowMarkerPath" style="stroke-width:2;stroke-dasharray:1,0"/></marker><marker id="my-svg_flowchart-v2-crossStart" class="marker cross flowchart-v2" markerHeight="11" markerUnits="userSpaceOnUse" markerWidth="11" orient="auto" refX="-1" refY="5.2" viewBox="0 0 11 11"><path d="m1 1 9 9m0-9-9 9" class="arrowMarkerPath" style="stroke-width:2;stroke-dasharray:1,0"/></marker><marker id="my-svg_flowchart-v2-crossEnd-margin" class="marker cross flowchart-v2" markerHeight="12" markerUnits="userSpaceOnUse" markerWidth="12" orient="auto" refX="17.7" refY="7.5" viewBox="0 0 15 15"><path d="m1 1 13 13M1 14 14 1" class="arrowMarkerPath" style="stroke-width:2.5"/></marker><marker id="my-svg_flowchart-v2-crossStart-margin" class="marker cross flowchart-v2" markerHeight="12" markerUnits="userSpaceOnUse" markerWidth="12" orient="auto" refX="-3.5" refY="7.5" viewBox="0 0 15 15"><path d="m1 1 13 13M1 14 14 1" class="arrowMarkerPath" style="stroke-width:2.5;stroke-dasharray:1,0"/></marker><g class="root"><g class="edgePaths"><path id="my-svg-L_CL_Q_0" marker-end="url(#my-svg_flowchart-v2-pointEnd__475569)" d="m96.219 127.407 4.583 3.211c4.583 3.212 13.75 9.635 22.25 12.846s16.333 3.212 20.25 3.212h3.917" class="edge-thickness-normal edge-pattern-solid edge-thickness-normal edge-pattern-solid flowchart-link" data-edge="true" data-et="edge" data-id="L_CL_Q_0" data-look="classic" data-points="W3sieCI6OTYuMjE4NzUsInkiOjEyNy40MDY4Nzk4NzUzNTQ1OH0seyJ4IjoxMjMuNzE4NzUsInkiOjE0Ni42NzU3ODEyNX0seyJ4IjoxNTEuMjE4NzUsInkiOjE0Ni42NzU3ODEyNX1d" style="stroke:#475569;stroke-width:2px"/><path id="my-svg-L_Q_FIX_0" marker-end="url(#my-svg_flowchart-v2-pointEnd__475569)" d="m264.168 123.921 10.321-5.207c10.321-5.208 30.963-15.623 47.556-23.207 16.594-7.584 29.139-12.337 35.411-14.713l6.273-2.377" class="edge-thickness-normal edge-pattern-solid edge-thickness-normal edge-pattern-solid flowchart-link" data-edge="true" data-et="edge" data-id="L_Q_FIX_0" data-look="classic" data-points="W3sieCI6MjY0LjE2NzUyMDUyOTA4NjQsInkiOjEyMy45MjE0MjY3NzkwODY0Mn0seyJ4IjozMjYuMDkzNzUsInkiOjkyLjY3NTc4MTI1fSx7IngiOjM2Ny40Njk1MTM5MTU5MjA2LCJ5Ijo3N31d" style="stroke:#475569;stroke-width:2px"/><path id="my-svg-L_FIX_CL_0" marker-end="url(#my-svg_flowchart-v2-pointEnd__475569)" d="m365.266 31.497-6.529-.771c-6.529-.77-19.586-2.31-43.952-3.081s-60.04-.77-93.769-.77-65.513 0-86.948 5.389-32.521 16.169-38.064 21.558l-5.543 5.39" class="edge-thickness-normal edge-pattern-solid edge-thickness-normal edge-pattern-solid flowchart-link" data-edge="true" data-et="edge" data-id="L_FIX_CL_0" data-look="classic" data-points="W3sieCI6MzY1LjI2NTYyNSwieSI6MzEuNDk2NTA0ODM3MTg3MzUyfSx7IngiOjMyNi4wOTM3NSwieSI6MjYuODc1fSx7IngiOjIxOS4wNzAzMTI1LCJ5IjoyNi44NzV9LHsieCI6MTIzLjcxODc1LCJ5IjoyNi44NzV9LHsieCI6ODcuNTkyNjU1OTY5NDc5MzUsInkiOjYyfV0=" style="stroke:#475569;stroke-width:2px"/><path id="my-svg-L_Q_RUN_0" marker-end="url(#my-svg_flowchart-v2-pointEnd__475569)" d="m275.681 157.916 8.403 1.668c8.402 1.669 25.206 5.005 44.645 6.752s41.515 1.904 52.553 1.983l11.037.078" class="edge-thickness-normal edge-pattern-solid edge-thickness-normal edge-pattern-solid flowchart-link" data-edge="true" data-et="edge" data-id="L_Q_RUN_0" data-look="classic" data-points="W3sieCI6Mjc1LjY4MTQ2NzU0NTIyMiwieSI6MTU3LjkxNjE4ODcwNDc3OH0seyJ4IjozMjYuMDkzNzUsInkiOjE2Ny45MjU3ODEyNX0seyJ4IjozOTYuMzE5MzMyMTIyODAwNSwieSI6MTY4LjQyNTc4MTI1fV0=" style="stroke:#475569;stroke-width:2px"/></g><g class="edgeLabels"><g class="edgeLabel"><foreignObject width="0" height="0" class="label" data-id="L_CL_Q_0"><div xmlns="http://www.w3.org/1999/xhtml" class="labelBkg" style="display:table-cell;white-space:nowrap;line-height:1.5;max-width:200px;text-align:center"><span class="edgeLabel"/></div></foreignObject></g><g class="edgeLabel"><foreignObject width="23.344" height="22.5" class="label" data-id="L_Q_FIX_0" transform="translate(303.21 87.083)"><div xmlns="http://www.w3.org/1999/xhtml" class="labelBkg" style="display:table-cell;white-space:nowrap;line-height:1.5;max-width:200px;text-align:center"><span class="edgeLabel"><p>yes</p></span></div></foreignObject></g><g class="edgeLabel"><foreignObject width="0" height="0" class="label" data-id="L_FIX_CL_0"><div xmlns="http://www.w3.org/1999/xhtml" class="labelBkg" style="display:table-cell;white-space:nowrap;line-height:1.5;max-width:200px;text-align:center"><span class="edgeLabel"/></div></foreignObject></g><g class="edgeLabel"><foreignObject width="16.688" height="22.5" class="label" data-id="L_Q_RUN_0" transform="translate(317.75 156.676)"><div xmlns="http://www.w3.org/1999/xhtml" class="labelBkg" style="display:table-cell;white-space:nowrap;line-height:1.5;max-width:200px;text-align:center"><span class="edgeLabel"><p>no</p></span></div></foreignObject></g></g><g class="nodes"><g id="my-svg-flowchart-CL-0" class="node default step" data-look="classic" transform="translate(52.11 96.5)"><rect width="88.219" height="69" x="-44.109" y="-34.5" class="basic label-container" rx="5" ry="5" style="fill:#e0e7ff!important;stroke:#6366f1!important;stroke-width:2.5px!important"/><g class="label" style="color:#312e81!important;font-weight:600!important" transform="translate(-32.11 -22.5)"><rect/><foreignObject width="64.219" height="45"><div xmlns="http://www.w3.org/1999/xhtml" style="color:#312e81!important;font-weight:600!important;display:table-cell;white-space:nowrap;line-height:1.5;max-width:200px;text-align:center"><span class="nodeLabel" style="fill:#e0e7ff!important;stroke:#6366f1!important;stroke-width:2.5px!important;color:#312e81!important;font-weight:600!important"><p>checklist<br/>all boxes</p></span></div></foreignObject></g></g><g id="my-svg-flowchart-Q-1" class="node default limit" data-look="classic"><path d="m67.852 0 67.851-67.852-67.851-67.851L0-67.852z" class="label-container" style="fill:#ffe4e6!important;stroke:#f43f5e!important;stroke-width:2.5px!important" transform="translate(151.719 214.527)"/><g class="label" style="color:#9f1239!important;font-weight:600!important" transform="translate(185.719 124.176)"><rect/><foreignObject width="66.703" height="45"><div xmlns="http://www.w3.org/1999/xhtml" style="color:#9f1239!important;font-weight:600!important;display:table-cell;white-space:nowrap;line-height:1.5;max-width:200px;text-align:center"><span class="nodeLabel" style="fill:#ffe4e6!important;stroke:#f43f5e!important;stroke-width:2.5px!important;color:#9f1239!important;font-weight:600!important"><p>any box<br/>resisted?</p></span></div></foreignObject></g></g><g id="my-svg-flowchart-FIX-3" class="node default warn" data-look="classic" transform="translate(458.531 42.5)"><rect width="186.531" height="69" x="-93.266" y="-34.5" class="basic label-container" rx="5" ry="5" style="fill:#fef3c7!important;stroke:#f59e0b!important;stroke-width:2.5px!important"/><g class="label" style="color:#92400e!important;font-weight:600!important" transform="translate(-81.266 -22.5)"><rect/><foreignObject width="162.531" height="45"><div xmlns="http://www.w3.org/1999/xhtml" style="color:#92400e!important;font-weight:600!important;display:table-cell;white-space:nowrap;line-height:1.5;max-width:200px;text-align:center"><span class="nodeLabel" style="fill:#fef3c7!important;stroke:#f59e0b!important;stroke-width:2.5px!important;color:#92400e!important;font-weight:600!important"><p>that resistance is<br/>the design flaw — fix it</p></span></div></foreignObject></g></g><g id="my-svg-flowchart-RUN-7" class="node default win" data-look="classic"><g class="basic label-container outer-path"><path stroke="none" stroke-width="0" d="M-34.227-28.5h68.454l1.826.059 1.818.175 1.804.292 1.78.406 1.752.52 1.715.63 1.67.74 1.62.845 1.562.947 1.499 1.046 1.428 1.139 1.353 1.228 1.27 1.312 1.185 1.392 1.092 1.464.997 1.53.897 1.593.792 1.646.686 1.693.576 1.734.463 1.767.35 1.793.233 1.812.117 1.824V.913l-.117 1.824-.234 1.812c-.125.644-.25 1.29-.349 1.793l-.463 1.767-.576 1.734-.686 1.693-.792 1.646-.897 1.592-.997 1.531-1.092 1.464-1.185 1.392-1.27 1.312-1.353 1.228-1.428 1.14-1.499 1.045-1.562.947-1.62.845-1.67.74-1.715.63-1.751.52-1.781.406-1.804.292-1.818.175-1.826.059h-68.454l-1.826-.059-1.818-.175-1.804-.292-1.78-.406-1.752-.52-1.715-.63c-.392-.175-.785-.349-1.67-.74l-1.62-.845-1.562-.947-1.499-1.046-1.428-1.139-1.353-1.228-1.27-1.312-1.185-1.392-1.092-1.464-.997-1.53-.897-1.593-.792-1.646-.686-1.693-.576-1.734-.463-1.767c-.135-.695-.27-1.39-.35-1.793l-.233-1.812-.117-1.824V-.913l.117-1.824.234-1.812.349-1.793.463-1.767.576-1.734.686-1.693.792-1.646.897-1.592.997-1.531 1.092-1.464 1.185-1.392 1.27-1.312 1.353-1.228 1.428-1.14 1.499-1.045 1.562-.947 1.62-.845 1.67-.74 1.715-.63 1.751-.52 1.781-.406 1.804-.292 1.818-.175 1.826-.059" style="fill:#ccfbf1!important;stroke:#14b8a6!important;stroke-width:2.5px!important" transform="translate(458.531 167.926)"/><path fill="none" stroke-dasharray="0 0" stroke-width="2.5" d="M-34.227-28.5h68.454m-68.454 0h68.454m0 0 1.826.059m-1.826-.059 1.826.059m0 0 1.818.175m-1.818-.175 1.818.175m0 0 1.804.292m-1.804-.292 1.804.292m0 0 1.78.406m-1.78-.406 1.78.406m0 0 1.752.52m-1.751-.52 1.751.52m0 0 1.715.63m-1.715-.63c.683.251 1.366.503 1.715.63m0 0 1.67.74m-1.67-.74 1.67.74m0 0 1.62.845m-1.62-.845 1.62.845m0 0 1.562.947m-1.562-.947 1.562.947m0 0 1.499 1.046m-1.499-1.046 1.499 1.046m0 0 1.428 1.139m-1.428-1.14L52.7-21.7m0 0 1.353 1.228M52.7-21.701l1.353 1.228m0 0 1.27 1.312m-1.27-1.312 1.27 1.312m0 0 1.185 1.392m-1.185-1.392 1.185 1.392m0 0 1.092 1.464m-1.09-1.465 1.092 1.464m0 0 .997 1.53m-.997-1.53.997 1.53m0 0 .897 1.593m-.897-1.592.897 1.592m0 0 .792 1.646m-.792-1.646.792 1.646m0 0 .686 1.693m-.686-1.693.686 1.693m0 0 .576 1.734m-.576-1.734.576 1.734m0 0 .463 1.767M61.55-8.11l.463 1.767m0 0 .35 1.793m-.35-1.793.35 1.793m0 0 .233 1.812m-.234-1.812.234 1.812m0 0 .117 1.824m-.117-1.824.117 1.824m0 0V.913m0-1.826V.913m0 0-.117 1.824m.117-1.824-.117 1.824m0 0-.234 1.812m.234-1.812-.234 1.812m0 0-.349 1.793m.35-1.793-.35 1.793m0 0-.463 1.767m.463-1.767-.463 1.767m0 0-.576 1.734m.576-1.734-.576 1.734m0 0-.686 1.693m.686-1.693-.686 1.693m0 0-.792 1.646m.792-1.646c-.16.335-.322.669-.792 1.646m0 0-.897 1.592m.897-1.592-.897 1.592m0 0-.997 1.531m.997-1.53-.997 1.53m0 0L56.51 17.77m1.092-1.464L56.51 17.77m0 0-1.185 1.392m1.185-1.392-1.185 1.392m0 0-1.27 1.312m1.27-1.312-1.27 1.312m0 0L52.7 21.701m1.353-1.228L52.7 21.701m0 0-1.428 1.14M52.7 21.7l-1.428 1.14m0 0-1.499 1.045m1.499-1.046-1.499 1.046m0 0-1.562.947m1.562-.947-1.562.947m0 0-1.62.845m1.62-.845-1.62.845m0 0-1.67.74m1.67-.74-1.67.74m0 0-1.715.63m1.715-.63-1.715.63m0 0-1.751.52m1.751-.52-1.751.52m0 0-1.781.406m1.78-.406-1.78.406m0 0-1.804.292m1.804-.292-1.804.292m0 0-1.818.175m1.818-.175-1.818.175m0 0-1.826.059m1.826-.059-1.826.059m0 0h-68.454m68.454 0h-68.454m0 0-1.826-.059m1.826.059-1.826-.059m0 0-1.818-.175m1.818.175-1.818-.175m0 0-1.804-.292m1.804.292-1.804-.292m0 0-1.78-.406m1.78.406-1.78-.406m0 0-1.752-.52m1.751.52-1.751-.52m0 0-1.715-.63m1.715.63-1.715-.63m0 0-1.67-.74m1.67.74-1.67-.74m0 0-1.62-.845m1.62.845-1.62-.845m0 0-1.562-.947m1.562.947c-.575-.35-1.15-.698-1.562-.947m0 0-1.499-1.046m1.499 1.046-1.499-1.046m0 0-1.428-1.139m1.428 1.14L-52.7 21.7m0 0-1.353-1.228M-52.7 21.7l-1.353-1.228m0 0-1.27-1.312m1.27 1.312-1.27-1.312m0 0-1.185-1.392m1.185 1.392-1.185-1.392m0 0-1.092-1.464m1.092 1.464-1.092-1.464m0 0-.997-1.53m.997 1.53-.997-1.53m0 0-.897-1.593m.897 1.592-.897-1.592m0 0-.792-1.646m.792 1.646-.792-1.646m0 0-.686-1.693m.686 1.693-.686-1.693m0 0-.576-1.734m.576 1.734-.576-1.734m0 0-.463-1.767m.463 1.767c-.12-.46-.24-.92-.463-1.767m0 0-.35-1.793m.35 1.793-.35-1.793m0 0-.233-1.812m.234 1.812-.234-1.812m0 0-.117-1.824m.117 1.824-.117-1.824m0 0V-.913m0 1.826V-.913m0 0 .117-1.824m-.117 1.824.117-1.824m0 0 .234-1.812m-.234 1.812.234-1.812m0 0 .349-1.793m-.35 1.793.35-1.793m0 0 .463-1.767m-.463 1.767.463-1.767m0 0 .576-1.734m-.576 1.734.576-1.734m0 0 .686-1.693m-.686 1.693.686-1.693m0 0 .792-1.646m-.792 1.646.792-1.646m0 0 .897-1.592m-.897 1.592.897-1.592m0 0 .997-1.531m-.997 1.53.997-1.53m0 0 1.092-1.464m-1.092 1.464 1.092-1.464m0 0 1.185-1.392m-1.185 1.392 1.185-1.392m0 0 1.27-1.312m-1.27 1.312 1.27-1.312m0 0 1.353-1.228m-1.353 1.228 1.353-1.228m0 0 1.428-1.14M-52.7-21.7l1.428-1.14m0 0 1.499-1.045m-1.499 1.046 1.499-1.046m0 0 1.562-.947m-1.562.947 1.562-.947m0 0 1.62-.845m-1.62.845 1.62-.845m0 0c.477-.211.955-.422 1.67-.74m-1.67.74 1.67-.74m0 0 1.715-.63m-1.715.63 1.715-.63m0 0 1.751-.52m-1.751.52 1.751-.52m0 0 1.781-.406m-1.78.406 1.78-.406m0 0 1.804-.292m-1.804.292 1.804-.292m0 0 1.818-.175m-1.818.175 1.818-.175m0 0 1.826-.059m-1.826.059 1.826-.059m0 0" style="fill:#ccfbf1!important;stroke:#14b8a6!important;stroke-width:2.5px!important" transform="translate(458.531 167.926)"/></g><g class="label" style="color:#115e59!important;font-weight:600!important" transform="translate(408.93 145.426)"><rect/><foreignObject width="99.203" height="45"><div xmlns="http://www.w3.org/1999/xhtml" style="color:#115e59!important;font-weight:600!important;display:table-cell;white-space:nowrap;line-height:1.5;max-width:200px;text-align:center"><span class="nodeLabel" style="fill:#ccfbf1!important;stroke:#14b8a6!important;stroke-width:2.5px!important;color:#115e59!important;font-weight:600!important"><p>cleared to run<br/>at L1</p></span></div></foreignObject></g></g></g></g><marker id="my-svg_flowchart-v2-pointEnd__475569" class="marker flowchart-v2" markerHeight="8" markerUnits="userSpaceOnUse" markerWidth="8" orient="auto" refX="5" refY="5" viewBox="0 0 10 10"><path d="m0 0 10 5-10 5z" class="arrowMarkerPath" style="stroke-width:1;stroke-dasharray:1,0"/></marker><defs><filter id="my-svg-drop-shadow" width="130%" height="130%"><feDropShadow dx="4" dy="4" flood-color="#000" flood-opacity=".06" stdDeviation="0"/></filter></defs><defs><filter id="my-svg-drop-shadow-small" width="150%" height="150%"><feDropShadow dx="2" dy="2" flood-color="#000" flood-opacity=".06" stdDeviation="0"/></filter></defs><linearGradient id="my-svg-gradient" x1="0%" x2="100%" y1="0%" y2="0%" gradientUnits="objectBoundingBox"><stop offset="0%" stop-color="hsl(40.5882352941, 60%, 83.3333333333%)"/><stop offset="100%" stop-color="hsl(-79.4117647059, 60%, 83.3333333333%)"/></linearGradient></svg>