<svg xmlns="http://www.w3.org/2000/svg" id="my-svg" width="100%" aria-roledescription="flowchart-v2" class="flowchart" style="font-size:15px;fill:#333;max-width:437.045px;background-color:transparent" viewBox="0.5 0 437.045 1037.173"><style><![CDATA[@keyframes edge-animation-frame{0%{stroke-dashoffset:0}}@keyframes dash{to{stroke-dashoffset:0}}#my-svg .edge-thickness-normal{stroke-width:1px}#my-svg .edge-pattern-solid{stroke-dasharray:0}#my-svg .edge-pattern-dotted{stroke-dasharray:2}#my-svg .marker{fill:#475569;stroke:#475569}#my-svg .marker.cross{stroke:#475569}#my-svg svg{font-size:15px}#my-svg p{margin:0}#my-svg .label{color:#333}#my-svg span{fill:#333;color:#333}#my-svg .node circle,#my-svg .node path,#my-svg .node rect{fill:#fff4dd;stroke:#edb;stroke-width:1px}#my-svg .flowchart-link{stroke:#475569;fill:none}#my-svg .edgeLabel,#my-svg .node .label{text-align:center}#my-svg .edgeLabel,#my-svg .edgeLabel p,#my-svg .edgeLabel rect{background-color:#f8fafc}#my-svg .edgeLabel rect{opacity:.5;fill:#f8fafc}#my-svg .labelBkg{background-color:rgba(248,250,252,.5)}#my-svg [data-look=neo].node circle,#my-svg [data-look=neo].node rect{stroke:url(#my-svg-gradient);filter:drop-shadow(1px 2px 2px #b9b9b9)}#my-svg [data-look=neo].node path{stroke:url(#my-svg-gradient);stroke-width:1px}#my-svg [data-look=neo].node .outer-path{filter:drop-shadow(1px 2px 2px #b9b9b9)}#my-svg :root{--mermaid-font-family:"trebuchet ms",verdana,arial,sans-serif}#my-svg .limit>*,#my-svg .policy>*{stroke-width:2.5px!important;font-weight:600!important}#my-svg .policy>*{fill:#ede9fe!important;stroke:#8b5cf6!important;color:#5b21b6!important}#my-svg .limit>*{fill:#ffe4e6!important;stroke:#f43f5e!important;color:#9f1239!important}#my-svg .cfg>*,#my-svg .file>*{stroke-width:2.5px!important;font-weight:600!important}#my-svg .human span,#my-svg .human>*{fill:#fef3c7!important;stroke:#f59e0b!important;color:#92400e!important}#my-svg .human span,#my-svg .human>*,#my-svg .maker>*{stroke-width:2.5px!important;font-weight:600!important}#my-svg .file>*{fill:#f1f5f9!important;stroke:#64748b!important;color:#334155!important}#my-svg .cfg>*{fill:#ccfbf1!important;stroke:#14b8a6!important;color:#115e59!important}#my-svg .maker>*{fill:#e0e7ff!important;stroke:#6366f1!important;color:#312e81!important}]]></style><marker id="my-svg_flowchart-v2-pointEnd" class="marker flowchart-v2" markerHeight="8" markerUnits="userSpaceOnUse" markerWidth="8" orient="auto" refX="5" refY="5" viewBox="0 0 10 10"><path d="m0 0 10 5-10 5z" class="arrowMarkerPath" style="stroke-width:1;stroke-dasharray:1,0"/></marker><marker id="my-svg_flowchart-v2-pointStart" class="marker flowchart-v2" markerHeight="8" markerUnits="userSpaceOnUse" markerWidth="8" orient="auto" refX="4.5" refY="5" viewBox="0 0 10 10"><path d="m0 5 10 5V0z" class="arrowMarkerPath" style="stroke-width:1;stroke-dasharray:1,0"/></marker><marker id="my-svg_flowchart-v2-pointEnd-margin" class="marker flowchart-v2" markerHeight="14" markerUnits="userSpaceOnUse" markerWidth="10.5" orient="auto" refX="11.5" refY="7" viewBox="0 0 11.5 14"><path d="m0 0 11.5 7L0 14z" class="arrowMarkerPath" style="stroke-width:0;stroke-dasharray:1,0"/></marker><marker id="my-svg_flowchart-v2-pointStart-margin" class="marker flowchart-v2" markerHeight="14" markerUnits="userSpaceOnUse" markerWidth="11.5" orient="auto" refX="1" refY="7" viewBox="0 0 11.5 14"><path d="m0 7 11.5 7V0z" class="arrowMarkerPath" style="stroke-width:0;stroke-dasharray:1,0"/></marker><marker id="my-svg_flowchart-v2-circleEnd" class="marker flowchart-v2" markerHeight="11" markerUnits="userSpaceOnUse" markerWidth="11" orient="auto" refX="11" refY="5" viewBox="0 0 10 10"><circle cx="5" cy="5" r="5" class="arrowMarkerPath" style="stroke-width:1;stroke-dasharray:1,0"/></marker><marker id="my-svg_flowchart-v2-circleStart" class="marker flowchart-v2" markerHeight="11" markerUnits="userSpaceOnUse" markerWidth="11" orient="auto" refX="-1" refY="5" viewBox="0 0 10 10"><circle cx="5" cy="5" r="5" class="arrowMarkerPath" style="stroke-width:1;stroke-dasharray:1,0"/></marker><marker id="my-svg_flowchart-v2-circleEnd-margin" class="marker flowchart-v2" markerHeight="14" markerUnits="userSpaceOnUse" markerWidth="14" orient="auto" refX="12.25" refY="5" viewBox="0 0 10 10"><circle cx="5" cy="5" r="5" class="arrowMarkerPath" style="stroke-width:0;stroke-dasharray:1,0"/></marker><marker id="my-svg_flowchart-v2-circleStart-margin" class="marker flowchart-v2" markerHeight="14" markerUnits="userSpaceOnUse" markerWidth="14" orient="auto" refX="-2" refY="5" viewBox="0 0 10 10"><circle cx="5" cy="5" r="5" class="arrowMarkerPath" style="stroke-width:0;stroke-dasharray:1,0"/></marker><marker id="my-svg_flowchart-v2-crossEnd" class="marker cross flowchart-v2" markerHeight="11" markerUnits="userSpaceOnUse" markerWidth="11" orient="auto" refX="12" refY="5.2" viewBox="0 0 11 11"><path d="m1 1 9 9m0-9-9 9" class="arrowMarkerPath" style="stroke-width:2;stroke-dasharray:1,0"/></marker><marker id="my-svg_flowchart-v2-crossStart" class="marker cross flowchart-v2" markerHeight="11" markerUnits="userSpaceOnUse" markerWidth="11" orient="auto" refX="-1" refY="5.2" viewBox="0 0 11 11"><path d="m1 1 9 9m0-9-9 9" class="arrowMarkerPath" style="stroke-width:2;stroke-dasharray:1,0"/></marker><marker id="my-svg_flowchart-v2-crossEnd-margin" class="marker cross flowchart-v2" markerHeight="12" markerUnits="userSpaceOnUse" markerWidth="12" orient="auto" refX="17.7" refY="7.5" viewBox="0 0 15 15"><path d="m1 1 13 13M1 14 14 1" class="arrowMarkerPath" style="stroke-width:2.5"/></marker><marker id="my-svg_flowchart-v2-crossStart-margin" class="marker cross flowchart-v2" markerHeight="12" markerUnits="userSpaceOnUse" markerWidth="12" orient="auto" refX="-3.5" refY="7.5" viewBox="0 0 15 15"><path d="m1 1 13 13M1 14 14 1" class="arrowMarkerPath" style="stroke-width:2.5;stroke-dasharray:1,0"/></marker><g class="root"><g class="edgePaths"><path id="my-svg-L_POL_GATE_0" marker-end="url(#my-svg_flowchart-v2-pointEnd__475569)" d="M110.859 108.08v51" class="edge-thickness-normal edge-pattern-solid edge-thickness-normal edge-pattern-solid flowchart-link" data-edge="true" data-et="edge" data-id="L_POL_GATE_0" data-look="classic" data-points="W3sieCI6MTEwLjg1OTM3NSwieSI6MTA4LjA4MDAwOTQ2MDQ0OTIyfSx7IngiOjExMC44NTkzNzUsInkiOjEzNS41ODAwMDk0NjA0NDkyMn0seyJ4IjoxMTAuODU5Mzc1LCJ5IjoxNjMuMDgwMDA5NDYwNDQ5MjJ9XQ==" style="stroke:#475569;stroke-width:2px"/><path id="my-svg-L_GATE_APPROVE_0" marker-end="url(#my-svg_flowchart-v2-pointEnd__475569)" d="M110.859 368.799v78.75" class="edge-thickness-normal edge-pattern-solid edge-thickness-normal edge-pattern-solid flowchart-link" data-edge="true" data-et="edge" data-id="L_GATE_APPROVE_0" data-look="classic" data-points="W3sieCI6MTEwLjg1OTM3NSwieSI6MzY4Ljc5ODc1OTQ2MDQ0OTJ9LHsieCI6MTEwLjg1OTM3NSwieSI6NDA3LjU0ODc1OTQ2MDQ0OTJ9LHsieCI6MTEwLjg1OTM3NSwieSI6NDUxLjU0ODc1OTQ2MDQ0OTJ9XQ==" style="stroke:#475569;stroke-width:2px"/><path id="my-svg-L_APPROVE_GRANT_0" marker-end="url(#my-svg_flowchart-v2-pointEnd__475569)" d="M110.859 520.549v9.208c0 9.208 0 27.625 8.878 45.315s26.634 34.653 35.512 43.135l8.879 8.481" class="edge-thickness-normal edge-pattern-solid edge-thickness-normal edge-pattern-solid flowchart-link" data-edge="true" data-et="edge" data-id="L_APPROVE_GRANT_0" data-look="classic" data-points="W3sieCI6MTEwLjg1OTM3NSwieSI6NTIwLjU0ODc1OTQ2MDQ0OTJ9LHsieCI6MTEwLjg1OTM3NSwieSI6NTc1Ljc5ODc1OTQ2MDQ0OTJ9LHsieCI6MTY3LjAxOTc3OTk1MzEzODc3LCJ5Ijo2MjkuNDUxNTMxOTE0ODMzNH1d" style="stroke:#475569;stroke-width:2px"/><path id="my-svg-L_GRANT_PERM_0" marker-end="url(#my-svg_flowchart-v2-pointEnd__475569)" d="M223.224 725.877v51" class="edge-thickness-normal edge-pattern-solid edge-thickness-normal edge-pattern-solid flowchart-link" data-edge="true" data-et="edge" data-id="L_GRANT_PERM_0" data-look="classic" data-points="W3sieCI6MjIzLjIyNDE2MzA1NTQxOTkyLCJ5Ijo3MjUuODc3MDY3NTY1OTE4fSx7IngiOjIyMy4yMjQxNjMwNTU0MTk5MiwieSI6NzUzLjM3NzA2NzU2NTkxOH0seyJ4IjoyMjMuMjI0MTYzMDU1NDE5OTIsInkiOjc4MC44NzcwNjc1NjU5MTh9XQ==" style="stroke:#475569;stroke-width:2px"/><path id="my-svg-L_PERM_LOOPS_0" marker-end="url(#my-svg_flowchart-v2-pointEnd__475569)" d="M223.224 882.673v73.5" class="edge-thickness-normal edge-pattern-dotted edge-thickness-normal edge-pattern-solid flowchart-link" data-edge="true" data-et="edge" data-id="L_PERM_LOOPS_0" data-look="classic" data-points="W3sieCI6MjIzLjIyNDE2MzA1NTQxOTkyLCJ5Ijo4ODIuNjczMTk0ODg1MjUzOX0seyJ4IjoyMjMuMjI0MTYzMDU1NDE5OTIsInkiOjkyMS40MjMxOTQ4ODUyNTM5fSx7IngiOjIyMy4yMjQxNjMwNTU0MTk5MiwieSI6OTYwLjE3MzE5NDg4NTI1Mzl9XQ==" style="stroke:#475569;stroke-width:2px"/><path id="my-svg-L_AUDIT_GRANT_0" marker-end="url(#my-svg_flowchart-v2-pointEnd__475569)" d="m336.089 526.299-.083 8.25c-.084 8.25-.25 24.75-9.212 41.481s-26.717 33.695-35.595 42.177l-8.878 8.481" class="edge-thickness-normal edge-pattern-dotted edge-thickness-normal edge-pattern-solid flowchart-link" data-edge="true" data-et="edge" data-id="L_AUDIT_GRANT_0" data-look="classic" data-points="W3sieCI6MzM2LjA4ODk1MTExMDgzOTg0LCJ5Ijo1MjYuMjk4NzU5NDYwNDQ5Mn0seyJ4IjozMzUuNTg4OTUxMTEwODM5ODQsInkiOjU3NS43OTg3NTk0NjA0NDkyfSx7IngiOjI3OS40Mjg1NDYxNTc3MDExLCJ5Ijo2MjkuNDUxNTMxOTE0ODMzNH1d" style="stroke:#475569;stroke-width:2px"/></g><g class="edgeLabels"><g class="edgeLabel"><foreignObject width="0" height="0" class="label" data-id="L_POL_GATE_0"><div xmlns="http://www.w3.org/1999/xhtml" class="labelBkg" style="display:table-cell;white-space:nowrap;line-height:1.5;max-width:200px;text-align:center"><span class="edgeLabel"/></div></foreignObject></g><g class="edgeLabel"><foreignObject width="50.047" height="22.5" class="label" data-id="L_GATE_APPROVE_0" transform="translate(85.836 396.299)"><div xmlns="http://www.w3.org/1999/xhtml" class="labelBkg" style="display:table-cell;white-space:nowrap;line-height:1.5;max-width:200px;text-align:center"><span class="edgeLabel"><p>request</p></span></div></foreignObject></g><g class="edgeLabel"><foreignObject width="0" height="0" class="label" data-id="L_APPROVE_GRANT_0"><div xmlns="http://www.w3.org/1999/xhtml" class="labelBkg" style="display:table-cell;white-space:nowrap;line-height:1.5;max-width:200px;text-align:center"><span class="edgeLabel"/></div></foreignObject></g><g class="edgeLabel"><foreignObject width="0" height="0" class="label" data-id="L_GRANT_PERM_0"><div xmlns="http://www.w3.org/1999/xhtml" class="labelBkg" style="display:table-cell;white-space:nowrap;line-height:1.5;max-width:200px;text-align:center"><span class="edgeLabel"/></div></foreignObject></g><g class="edgeLabel"><foreignObject width="53.375" height="22.5" class="label" data-id="L_PERM_LOOPS_0" transform="translate(196.537 910.173)"><div xmlns="http://www.w3.org/1999/xhtml" class="labelBkg" style="display:table-cell;white-space:nowrap;line-height:1.5;max-width:200px;text-align:center"><span class="edgeLabel"><p>governs</p></span></div></foreignObject></g><g class="edgeLabel"><foreignObject width="137.547" height="45" class="label" data-id="L_AUDIT_GRANT_0" transform="translate(266.816 553.299)"><div xmlns="http://www.w3.org/1999/xhtml" class="labelBkg" style="display:table-cell;white-space:nowrap;line-height:1.5;max-width:200px;text-align:center"><span class="edgeLabel"><p>answered from<br/>records, not memory</p></span></div></foreignObject></g></g><g class="nodes"><g id="my-svg-flowchart-POL-0" class="node default policy" data-look="classic"><path d="M0 14.36a84.352 14.36 0 0 0 168.703 0A84.352 14.36 0 0 0 0 14.36v71.36a84.352 14.36 0 0 0 168.703 0V14.36" class="basic label-container outer-path" style="fill:#ede9fe!important;stroke:#8b5cf6!important;stroke-width:2.5px!important" transform="translate(26.508 8)"/><g class="label" style="color:#5b21b6!important;font-weight:600!important" transform="translate(32.508 43.54)"><rect/><foreignObject width="156.703" height="45"><div xmlns="http://www.w3.org/1999/xhtml" style="color:#5b21b6!important;font-weight:600!important;display:table-cell;white-space:nowrap;line-height:1.5;max-width:200px;text-align:center"><span class="nodeLabel" style="fill:#ede9fe!important;stroke:#8b5cf6!important;stroke-width:2.5px!important;color:#5b21b6!important;font-weight:600!important"><p>org policy —<br/>binding for every fleet</p></span></div></foreignObject></g></g><g id="my-svg-flowchart-GATE-1" class="node default limit" data-look="classic"><path d="m102.86 0 102.859-102.86-102.86-102.859L0-102.859z" class="label-container" style="fill:#ffe4e6!important;stroke:#f43f5e!important;stroke-width:2.5px!important" transform="translate(8.5 368.799)"/><g class="label" style="color:#9f1239!important;font-weight:600!important" transform="translate(42.5 243.44)"><rect/><foreignObject width="136.719" height="45"><div xmlns="http://www.w3.org/1999/xhtml" style="color:#9f1239!important;font-weight:600!important;display:table-cell;white-space:nowrap;line-height:1.5;max-width:200px;text-align:center"><span class="nodeLabel" style="fill:#ffe4e6!important;stroke:#f43f5e!important;stroke-width:2.5px!important;color:#9f1239!important;font-weight:600!important"><p>new loop or<br/>permission change</p></span></div></foreignObject></g></g><g id="my-svg-flowchart-APPROVE-3" class="node default human" data-look="classic" transform="translate(110.86 486.049)"><rect width="171.547" height="69" x="-85.773" y="-34.5" class="basic label-container" rx="5" ry="5" style="fill:#fef3c7!important;stroke:#f59e0b!important;stroke-width:2.5px!important"/><g class="label" style="color:#92400e!important;font-weight:600!important" transform="translate(-73.773 -22.5)"><rect/><foreignObject width="147.547" height="45"><div xmlns="http://www.w3.org/1999/xhtml" style="color:#92400e!important;font-weight:600!important;display:table-cell;white-space:nowrap;line-height:1.5;max-width:200px;text-align:center"><span class="nodeLabel" style="color:#92400e!important;font-weight:600!important"><p>named-role approval<br/>+ reason recorded</p></span></div></foreignObject></g></g><g id="my-svg-flowchart-GRANT-5" class="node default file" data-look="classic"><path d="M0 14.36a84.344 14.36 0 0 0 168.688 0A84.344 14.36 0 0 0 0 14.36v71.359a84.344 14.36 0 0 0 168.688 0v-71.36" class="basic label-container outer-path" style="fill:#f1f5f9!important;stroke:#64748b!important;stroke-width:2.5px!important" transform="translate(138.88 625.799)"/><g class="label" style="color:#334155!important;font-weight:600!important" transform="translate(144.88 661.338)"><rect/><foreignObject width="156.688" height="45"><div xmlns="http://www.w3.org/1999/xhtml" style="color:#334155!important;font-weight:600!important;display:table-cell;white-space:nowrap;line-height:1.5;max-width:200px;text-align:center"><span class="nodeLabel" style="fill:#f1f5f9!important;stroke:#64748b!important;stroke-width:2.5px!important;color:#334155!important;font-weight:600!important"><p>grant record —<br/>who, what, when, why</p></span></div></foreignObject></g></g><g id="my-svg-flowchart-PERM-7" class="node default cfg" data-look="classic"><path d="M0 14.932a92.695 14.932 0 0 0 185.39 0 92.695 14.932 0 0 0-185.39 0v71.932a92.695 14.932 0 0 0 185.39 0V14.932" class="basic label-container outer-path" style="fill:#ccfbf1!important;stroke:#14b8a6!important;stroke-width:2.5px!important" transform="translate(130.529 780.877)"/><g class="label" style="color:#115e59!important;font-weight:600!important" transform="translate(136.529 817.275)"><rect/><foreignObject width="173.391" height="45"><div xmlns="http://www.w3.org/1999/xhtml" style="color:#115e59!important;font-weight:600!important;display:table-cell;white-space:nowrap;line-height:1.5;max-width:200px;text-align:center"><span class="nodeLabel" style="fill:#ccfbf1!important;stroke:#14b8a6!important;stroke-width:2.5px!important;color:#115e59!important;font-weight:600!important"><p>permission model —<br/>enforced by the harness</p></span></div></foreignObject></g></g><g id="my-svg-flowchart-LOOPS-9" class="node default maker" data-look="classic" transform="translate(223.224 994.673)"><rect width="99.031" height="69" x="-49.516" y="-34.5" class="basic label-container" rx="5" ry="5" style="fill:#e0e7ff!important;stroke:#6366f1!important;stroke-width:2.5px!important"/><g class="label" style="color:#312e81!important;font-weight:600!important" transform="translate(-37.516 -22.5)"><rect/><foreignObject width="75.031" height="45"><div xmlns="http://www.w3.org/1999/xhtml" style="color:#312e81!important;font-weight:600!important;display:table-cell;white-space:nowrap;line-height:1.5;max-width:200px;text-align:center"><span class="nodeLabel" style="fill:#e0e7ff!important;stroke:#6366f1!important;stroke-width:2.5px!important;color:#312e81!important;font-weight:600!important"><p>every loop<br/>in the org</p></span></div></foreignObject></g></g><g id="my-svg-flowchart-AUDIT-10" class="node default human" data-look="classic"><g class="basic label-container outer-path"><path stroke="none" stroke-width="0" d="M-54.227-39.75H54.227l2.546.082 2.537.244 2.515.407 2.484.567 2.443.725 2.391.88 2.33 1.031 2.26 1.18 2.179 1.32 2.09 1.458 1.992 1.589 1.886 1.713 1.773 1.83 1.651 1.94 1.524 2.042 1.39 2.136c.445.79.89 1.578 1.25 2.22l1.106 2.296.957 2.362.803 2.418.646 2.465.487 2.5.326 2.528.163 2.543v2.548l-.163 2.543-.326 2.527-.487 2.501-.646 2.465-.803 2.418-.957 2.362-1.105 2.296-1.25 2.22-1.39 2.136-1.525 2.042-1.651 1.94-1.773 1.83-1.886 1.713L78 31.857l-2.09 1.457c-.452.275-.905.55-2.178 1.32l-2.26 1.18-2.33 1.03-2.39.881-2.444.725-2.484.567-2.515.407-2.537.244-2.546.082H-54.227l-2.546-.082-2.537-.244-2.515-.407-2.484-.567-2.443-.725-2.391-.88-2.33-1.031-2.26-1.18-2.179-1.32-2.09-1.458-1.992-1.589-1.886-1.713-1.773-1.83-1.651-1.94-1.524-2.042-1.39-2.136c-.306-.541-.61-1.083-1.25-2.22-.403-.834-.804-1.668-1.106-2.296l-.957-2.362-.803-2.418-.646-2.465-.487-2.5-.326-2.528-.163-2.543v-2.548l.163-2.543.326-2.527.487-2.501.646-2.465.803-2.418.957-2.362 1.105-2.296 1.25-2.22c.523-.802 1.045-1.604 1.39-2.136.442-.59.882-1.181 1.525-2.042l1.651-1.94 1.773-1.83 1.886-1.713 1.993-1.59 2.09-1.457 2.178-1.32 2.26-1.18 2.33-1.03c.694-.257 1.39-.512 2.39-.881l2.444-.725 2.484-.567 2.515-.407 2.537-.244 2.546-.082" style="fill:#fef3c7!important;stroke:#f59e0b!important;stroke-width:2.5px!important" transform="translate(335.589 486.049)"/><path fill="none" stroke-dasharray="0 0" stroke-width="2.5" d="M-54.227-39.75H54.227m-108.454 0H54.227m0 0 2.546.082m-2.546-.082 2.546.082m0 0c.635.06 1.269.122 2.537.244m-2.537-.244 2.537.244m0 0 2.515.407m-2.515-.407 2.515.407m0 0 2.484.567m-2.484-.567 2.484.567m0 0 2.443.725m-2.443-.725 2.443.725m0 0 2.391.88m-2.39-.88c.757.28 1.516.558 2.39.88m0 0 2.33 1.031m-2.33-1.03 2.33 1.03m0 0 2.26 1.18m-2.26-1.18 2.26 1.18m0 0 2.179 1.32m-2.18-1.32 2.18 1.32m0 0 2.09 1.458m-2.09-1.458 2.09 1.458m0 0 1.992 1.589M78-31.857l1.993 1.59m0 0 1.886 1.713m-1.886-1.713 1.886 1.713m0 0 1.773 1.83m-1.773-1.83 1.773 1.83m0 0 1.651 1.94m-1.651-1.94 1.651 1.94m0 0 1.524 2.042m-1.524-2.042 1.524 2.042m0 0 1.39 2.136m-1.39-2.136 1.39 2.136m0 0c.328.581.656 1.163 1.25 2.22m-1.25-2.22c.262.463.523.927 1.25 2.22m0 0c.327.676.652 1.352 1.106 2.296m-1.105-2.296 1.105 2.296m0 0 .957 2.362m-.957-2.362.957 2.362m0 0 .803 2.418m-.803-2.418.803 2.418m0 0 .646 2.465m-.646-2.465.646 2.465m0 0 .487 2.5m-.487-2.5.487 2.5m0 0 .326 2.528m-.326-2.527.326 2.527m0 0 .163 2.543m-.163-2.543.163 2.543m0 0v2.548m0-2.548v2.548m0 0-.163 2.543m.163-2.543-.163 2.543m0 0-.326 2.527m.326-2.527-.326 2.527m0 0-.487 2.501m.487-2.5-.487 2.5m0 0-.646 2.465m.646-2.465-.646 2.465m0 0-.803 2.418m.803-2.418-.803 2.418m0 0-.957 2.362m.957-2.362-.957 2.362m0 0-1.105 2.296m1.105-2.296-1.105 2.296m0 0-1.25 2.22m1.25-2.22-1.25 2.22m0 0-1.39 2.136m1.39-2.136-1.39 2.136m0 0-1.525 2.042m1.524-2.042-1.524 2.042m0 0-1.651 1.94m1.651-1.94-1.651 1.94m0 0-1.773 1.83m1.773-1.83-1.773 1.83m0 0-1.886 1.713m1.886-1.713-1.886 1.713m0 0L78 31.857m1.993-1.59L78 31.857m0 0-2.09 1.457M78 31.856l-2.09 1.458m0 0c-.687.417-1.374.834-2.178 1.32m2.179-1.32-2.18 1.32m0 0-2.259 1.18m2.26-1.18-2.26 1.18m0 0-2.33 1.03m2.33-1.03-2.33 1.03m0 0-2.39.881m2.39-.88-2.39.88m0 0-2.444.725m2.443-.725-2.443.725m0 0-2.484.567m2.484-.567-2.484.567m0 0-2.515.407m2.515-.407-2.515.407m0 0-2.537.244m2.537-.244-2.537.244m0 0-2.546.082m2.546-.082-2.546.082m0 0H-54.227m108.454 0H-54.227m0 0-2.546-.082m2.546.082-2.546-.082m0 0-2.537-.244m2.537.244-2.537-.244m0 0-2.515-.407m2.515.407-2.515-.407m0 0-2.484-.567m2.484.567-2.484-.567m0 0-2.443-.725m2.443.725-2.443-.725m0 0-2.391-.88m2.39.88-2.39-.88m0 0-2.33-1.031m2.33 1.03-2.33-1.03m0 0-2.26-1.18m2.26 1.18-2.26-1.18m0 0-2.179-1.32m2.18 1.32-2.18-1.32m0 0-2.09-1.458m2.09 1.458-2.09-1.458m0 0-1.992-1.589m1.993 1.59-1.993-1.59m0 0-1.886-1.713m1.886 1.713-1.886-1.713m0 0-1.773-1.83m1.773 1.83-1.773-1.83m0 0-1.651-1.94m1.651 1.94-1.651-1.94m0 0-1.524-2.042m1.524 2.042-1.524-2.042m0 0-1.39-2.136m1.39 2.136-1.39-2.136m0 0-1.25-2.22m1.25 2.22c-.333-.59-.665-1.179-1.25-2.22m0 0-1.106-2.296m1.105 2.296-1.105-2.296m0 0-.957-2.362m.957 2.362-.957-2.362m0 0-.803-2.418m.803 2.418-.803-2.418m0 0-.646-2.465m.646 2.465-.646-2.465m0 0-.487-2.5m.487 2.5-.487-2.5m0 0-.326-2.528m.326 2.527-.326-2.527m0 0-.163-2.543m.163 2.543-.163-2.543m0 0v-2.548m0 2.548v-2.548m0 0 .163-2.543m-.163 2.543.163-2.543m0 0 .326-2.527m-.326 2.527.326-2.527m0 0 .487-2.501m-.487 2.5.487-2.5m0 0 .646-2.465m-.646 2.465.646-2.465m0 0 .803-2.418m-.803 2.418c.31-.93.618-1.86.803-2.418m0 0 .957-2.362m-.957 2.362.957-2.362m0 0 1.105-2.296m-1.105 2.296 1.105-2.296m0 0 1.25-2.22m-1.25 2.22 1.25-2.22m0 0 1.39-2.136m-1.39 2.136 1.39-2.136m0 0 1.525-2.042m-1.524 2.042 1.524-2.042m0 0 1.651-1.94m-1.651 1.94 1.651-1.94m0 0 1.773-1.83m-1.773 1.83 1.773-1.83m0 0 1.886-1.713m-1.886 1.713 1.886-1.713m0 0 1.993-1.59m-1.993 1.59 1.993-1.59m0 0 2.09-1.457m-2.09 1.458c.465-.325.93-.65 2.09-1.458m0 0 2.178-1.32m-2.179 1.32 2.18-1.32m0 0 2.259-1.18m-2.26 1.18 2.26-1.18m0 0 2.33-1.03m-2.33 1.03 2.33-1.03m0 0 2.39-.881m-2.39.88 2.39-.88m0 0 2.444-.725m-2.443.725 2.443-.725m0 0 2.484-.567m-2.484.567 2.484-.567m0 0 2.515-.407m-2.515.407 2.515-.407m0 0 2.537-.244m-2.537.244 2.537-.244m0 0 2.546-.082m-2.546.082 2.546-.082m0 0" style="fill:#fef3c7!important;stroke:#f59e0b!important;stroke-width:2.5px!important" transform="translate(335.589 486.049)"/></g><g class="label" style="color:#92400e!important;font-weight:600!important" transform="translate(257.55 452.299)"><rect/><foreignObject width="156.078" height="67.5"><div xmlns="http://www.w3.org/1999/xhtml" style="color:#92400e!important;font-weight:600!important;display:table-cell;white-space:nowrap;line-height:1.5;max-width:200px;text-align:center"><span class="nodeLabel" style="color:#92400e!important;font-weight:600!important"><p>🧑 auditor:<br/>&apos;show me every loop<br/>that can write to prod&apos;</p></span></div></foreignObject></g></g></g></g><marker id="my-svg_flowchart-v2-pointEnd__475569" class="marker flowchart-v2" markerHeight="8" markerUnits="userSpaceOnUse" markerWidth="8" orient="auto" refX="5" refY="5" viewBox="0 0 10 10"><path d="m0 0 10 5-10 5z" class="arrowMarkerPath" style="stroke-width:1;stroke-dasharray:1,0"/></marker><defs><filter id="my-svg-drop-shadow" width="130%" height="130%"><feDropShadow dx="4" dy="4" flood-color="#000" flood-opacity=".06" stdDeviation="0"/></filter></defs><defs><filter id="my-svg-drop-shadow-small" width="150%" height="150%"><feDropShadow dx="2" dy="2" flood-color="#000" flood-opacity=".06" stdDeviation="0"/></filter></defs><linearGradient id="my-svg-gradient" x1="0%" x2="100%" y1="0%" y2="0%" gradientUnits="objectBoundingBox"><stop offset="0%" stop-color="hsl(40.5882352941, 60%, 83.3333333333%)"/><stop offset="100%" stop-color="hsl(-79.4117647059, 60%, 83.3333333333%)"/></linearGradient></svg>