<svg xmlns="http://www.w3.org/2000/svg" id="my-svg" width="100%" aria-roledescription="flowchart-v2" class="flowchart" style="font-size:15px;fill:#333;max-width:876.381px;background-color:transparent" viewBox="0 0 876.381 241"><style><![CDATA[@keyframes edge-animation-frame{0%{stroke-dashoffset:0}}@keyframes dash{to{stroke-dashoffset:0}}#my-svg .edge-thickness-normal{stroke-width:1px}#my-svg .edge-pattern-solid{stroke-dasharray:0}#my-svg .edge-pattern-dotted{stroke-dasharray:2}#my-svg .marker{fill:#475569;stroke:#475569}#my-svg .marker.cross{stroke:#475569}#my-svg svg{font-size:15px}#my-svg p{margin:0}#my-svg .label{color:#333}#my-svg span{fill:#333;color:#333}#my-svg .node circle,#my-svg .node path,#my-svg .node rect{fill:#fff4dd;stroke:#edb;stroke-width:1px}#my-svg .flowchart-link{stroke:#475569;fill:none}#my-svg .edgeLabel,#my-svg .node .label{text-align:center}#my-svg .edgeLabel,#my-svg .edgeLabel p,#my-svg .edgeLabel rect{background-color:#f8fafc}#my-svg .edgeLabel rect{opacity:.5;fill:#f8fafc}#my-svg .labelBkg{background-color:rgba(248,250,252,.5)}#my-svg [data-look=neo].node circle,#my-svg [data-look=neo].node rect{stroke:url(#my-svg-gradient);filter:drop-shadow(1px 2px 2px #b9b9b9)}#my-svg [data-look=neo].node path{stroke:url(#my-svg-gradient);stroke-width:1px}#my-svg [data-look=neo].node .outer-path{filter:drop-shadow(1px 2px 2px #b9b9b9)}#my-svg :root{--mermaid-font-family:"trebuchet ms",verdana,arial,sans-serif}#my-svg .bad>*,#my-svg .warn>*{stroke-width:2.5px!important;font-weight:600!important}#my-svg .warn>*{fill:#fef3c7!important;stroke:#f59e0b!important;color:#92400e!important}#my-svg .bad>*{fill:#ffe4e6!important;stroke:#f43f5e!important;color:#9f1239!important}#my-svg .ok>*,#my-svg .stop>*,#my-svg .win>*,#my-svg .worse>*{stroke-width:2.5px!important;font-weight:600!important}#my-svg .worse>*{fill:#ede9fe!important;stroke:#8b5cf6!important;color:#5b21b6!important}#my-svg .win>*{fill:#ccfbf1!important;stroke:#14b8a6!important;color:#115e59!important}#my-svg .ok>*{fill:#e0e7ff!important;stroke:#6366f1!important;color:#312e81!important}#my-svg .stop>*{fill:#e2e8f0!important;stroke:#94a3b8!important;color:#334155!important}]]></style><marker id="my-svg_flowchart-v2-pointEnd" class="marker flowchart-v2" markerHeight="8" markerUnits="userSpaceOnUse" markerWidth="8" orient="auto" refX="5" refY="5" viewBox="0 0 10 10"><path d="m0 0 10 5-10 5z" class="arrowMarkerPath" style="stroke-width:1;stroke-dasharray:1,0"/></marker><marker id="my-svg_flowchart-v2-pointStart" class="marker flowchart-v2" markerHeight="8" markerUnits="userSpaceOnUse" markerWidth="8" orient="auto" refX="4.5" refY="5" viewBox="0 0 10 10"><path d="m0 5 10 5V0z" class="arrowMarkerPath" style="stroke-width:1;stroke-dasharray:1,0"/></marker><marker id="my-svg_flowchart-v2-pointEnd-margin" class="marker flowchart-v2" markerHeight="14" markerUnits="userSpaceOnUse" markerWidth="10.5" orient="auto" refX="11.5" refY="7" viewBox="0 0 11.5 14"><path d="m0 0 11.5 7L0 14z" class="arrowMarkerPath" style="stroke-width:0;stroke-dasharray:1,0"/></marker><marker id="my-svg_flowchart-v2-pointStart-margin" class="marker flowchart-v2" markerHeight="14" markerUnits="userSpaceOnUse" markerWidth="11.5" orient="auto" refX="1" refY="7" viewBox="0 0 11.5 14"><path d="m0 7 11.5 7V0z" class="arrowMarkerPath" style="stroke-width:0;stroke-dasharray:1,0"/></marker><marker id="my-svg_flowchart-v2-circleEnd" class="marker flowchart-v2" markerHeight="11" markerUnits="userSpaceOnUse" markerWidth="11" orient="auto" refX="11" refY="5" viewBox="0 0 10 10"><circle cx="5" cy="5" r="5" class="arrowMarkerPath" style="stroke-width:1;stroke-dasharray:1,0"/></marker><marker id="my-svg_flowchart-v2-circleStart" class="marker flowchart-v2" markerHeight="11" markerUnits="userSpaceOnUse" markerWidth="11" orient="auto" refX="-1" refY="5" viewBox="0 0 10 10"><circle cx="5" cy="5" r="5" class="arrowMarkerPath" style="stroke-width:1;stroke-dasharray:1,0"/></marker><marker id="my-svg_flowchart-v2-circleEnd-margin" class="marker flowchart-v2" markerHeight="14" markerUnits="userSpaceOnUse" markerWidth="14" orient="auto" refX="12.25" refY="5" viewBox="0 0 10 10"><circle cx="5" cy="5" r="5" class="arrowMarkerPath" style="stroke-width:0;stroke-dasharray:1,0"/></marker><marker id="my-svg_flowchart-v2-circleStart-margin" class="marker flowchart-v2" markerHeight="14" markerUnits="userSpaceOnUse" markerWidth="14" orient="auto" refX="-2" refY="5" viewBox="0 0 10 10"><circle cx="5" cy="5" r="5" class="arrowMarkerPath" style="stroke-width:0;stroke-dasharray:1,0"/></marker><marker id="my-svg_flowchart-v2-crossEnd" class="marker cross flowchart-v2" markerHeight="11" markerUnits="userSpaceOnUse" markerWidth="11" orient="auto" refX="12" refY="5.2" viewBox="0 0 11 11"><path d="m1 1 9 9m0-9-9 9" class="arrowMarkerPath" style="stroke-width:2;stroke-dasharray:1,0"/></marker><marker id="my-svg_flowchart-v2-crossStart" class="marker cross flowchart-v2" markerHeight="11" markerUnits="userSpaceOnUse" markerWidth="11" orient="auto" refX="-1" refY="5.2" viewBox="0 0 11 11"><path d="m1 1 9 9m0-9-9 9" class="arrowMarkerPath" style="stroke-width:2;stroke-dasharray:1,0"/></marker><marker id="my-svg_flowchart-v2-crossEnd-margin" class="marker cross flowchart-v2" markerHeight="12" markerUnits="userSpaceOnUse" markerWidth="12" orient="auto" refX="17.7" refY="7.5" viewBox="0 0 15 15"><path d="m1 1 13 13M1 14 14 1" class="arrowMarkerPath" style="stroke-width:2.5"/></marker><marker id="my-svg_flowchart-v2-crossStart-margin" class="marker cross flowchart-v2" markerHeight="12" markerUnits="userSpaceOnUse" markerWidth="12" orient="auto" refX="-3.5" refY="7.5" viewBox="0 0 15 15"><path d="m1 1 13 13M1 14 14 1" class="arrowMarkerPath" style="stroke-width:2.5;stroke-dasharray:1,0"/></marker><g class="root"><g class="edgePaths"><path id="my-svg-L_D_O_0" marker-end="url(#my-svg_flowchart-v2-pointEnd__475569)" d="M341.886 42.5h12.276c12.276 0 36.829 0 62.285 5.106 25.457 5.105 51.818 15.316 64.999 20.422l13.181 5.105" class="edge-thickness-normal edge-pattern-solid edge-thickness-normal edge-pattern-solid flowchart-link" data-edge="true" data-et="edge" data-id="L_D_O_0" data-look="classic" data-points="W3sieCI6MzQxLjg4NTc2MTI2MDk4NjMsInkiOjQyLjV9LHsieCI6NDE1LjU0Mjk5MTYzODE4MzYsInkiOjQyLjV9LHsieCI6NDk4LjM1NjQ3NTgzMDA3ODEsInkiOjc0LjU3ODE2NDE4MDUzODAxfV0=" style="stroke:#475569;stroke-width:2px"/><path id="my-svg-L_O_H_0" marker-end="url(#my-svg_flowchart-v2-pointEnd__475569)" d="M611.544 96.5h13.802c13.802 0 41.407 0 65.855 4.76 24.447 4.759 45.738 14.279 56.383 19.039l10.645 4.759" class="edge-thickness-normal edge-pattern-solid edge-thickness-normal edge-pattern-solid flowchart-link" data-edge="true" data-et="edge" data-id="L_O_H_0" data-look="classic" data-points="W3sieCI6NjExLjU0Mzk3NTgzMDA3ODEsInkiOjk2LjV9LHsieCI6Njk0LjM1NzQ2MDAyMTk3MjcsInkiOjk2LjV9LHsieCI6NzYxLjg4MDg5NzUyMTk3MjcsInkiOjEyNi42OTA5NTY3MjQyMzgzfV0=" style="stroke:#475569;stroke-width:2px"/><path id="my-svg-L_CATCH1_D_0" marker-end="url(#my-svg_flowchart-v2-pointEnd__475569)" d="m174.752 43 4.5-.083c4.5-.084 13.5-.25 22.939-.334 9.439-.083 19.317-.083 24.256-.083h4.939" class="edge-thickness-normal edge-pattern-dotted edge-thickness-normal edge-pattern-solid flowchart-link" data-edge="true" data-et="edge" data-id="L_CATCH1_D_0" data-look="classic" data-points="W3sieCI6MTc0Ljc1MTk2NDMyMzQzOTQ0LCJ5Ijo0M30seyJ4IjoyMDEuNzUxOTY4MzgzNzg5MDYsInkiOjQyLjV9LHsieCI6MjM1LjM4NTc2MTI2MDk4NjMzLCJ5Ijo0Mi41fV0=" style="stroke:#475569;stroke-width:2px"/><path id="my-svg-L_CATCH2_O_0" marker-end="url(#my-svg_flowchart-v2-pointEnd__475569)" d="m348.52 151 11.17-.083c11.171-.084 33.512-.25 57.863-5.439s50.712-15.4 63.893-20.506l13.181-5.105" class="edge-thickness-normal edge-pattern-dotted edge-thickness-normal edge-pattern-solid flowchart-link" data-edge="true" data-et="edge" data-id="L_CATCH2_O_0" data-look="classic" data-points="W3sieCI6MzQ4LjUxOTU1NzcwNzIyNywieSI6MTUwLjk5OTk5OTk5OTk5OTk3fSx7IngiOjQxNS41NDI5OTE2MzgxODM2LCJ5IjoxNTAuNX0seyJ4Ijo0OTguMzU2NDc1ODMwMDc4MSwieSI6MTE4LjQyMTgzNTgxOTQ2MTk5fV0=" style="stroke:#475569;stroke-width:2px"/><path id="my-svg-L_CATCH3_H_0" marker-end="url(#my-svg_flowchart-v2-pointEnd__475569)" d="m627.334 205 11.171-.083c11.17-.084 33.511-.25 55.327-5.093s43.107-14.363 53.752-19.123l10.645-4.759" class="edge-thickness-normal edge-pattern-dotted edge-thickness-normal edge-pattern-solid flowchart-link" data-edge="true" data-et="edge" data-id="L_CATCH3_H_0" data-look="classic" data-points="W3sieCI6NjI3LjMzNDAxODQ2MTYyNDUsInkiOjIwNX0seyJ4Ijo2OTQuMzU3NDYwMDIxOTcyNywieSI6MjA0LjV9LHsieCI6NzYxLjg4MDg5NzUyMTk3MjcsInkiOjE3NC4zMDkwNDMyNzU3NjE3fV0=" style="stroke:#475569;stroke-width:2px"/></g><g class="edgeLabels"><g class="edgeLabel"><foreignObject width="80.047" height="45" class="label" data-id="L_D_O_0" transform="translate(375.52 20)"><div xmlns="http://www.w3.org/1999/xhtml" class="labelBkg" style="display:table-cell;white-space:nowrap;line-height:1.5;max-width:200px;text-align:center"><span class="edgeLabel"><p>survives the<br/>whiteboard</p></span></div></foreignObject></g><g class="edgeLabel"><foreignObject width="80.047" height="45" class="label" data-id="L_O_H_0" transform="translate(654.334 74)"><div xmlns="http://www.w3.org/1999/xhtml" class="labelBkg" style="display:table-cell;white-space:nowrap;line-height:1.5;max-width:200px;text-align:center"><span class="edgeLabel"><p>survives the<br/>instruments</p></span></div></foreignObject></g><g class="edgeLabel"><foreignObject width="0" height="0" class="label" data-id="L_CATCH1_D_0"><div xmlns="http://www.w3.org/1999/xhtml" class="labelBkg" style="display:table-cell;white-space:nowrap;line-height:1.5;max-width:200px;text-align:center"><span class="edgeLabel"/></div></foreignObject></g><g class="edgeLabel"><foreignObject width="0" height="0" class="label" data-id="L_CATCH2_O_0"><div xmlns="http://www.w3.org/1999/xhtml" class="labelBkg" style="display:table-cell;white-space:nowrap;line-height:1.5;max-width:200px;text-align:center"><span class="edgeLabel"/></div></foreignObject></g><g class="edgeLabel"><foreignObject width="0" height="0" class="label" data-id="L_CATCH3_H_0"><div xmlns="http://www.w3.org/1999/xhtml" class="labelBkg" style="display:table-cell;white-space:nowrap;line-height:1.5;max-width:200px;text-align:center"><span class="edgeLabel"/></div></foreignObject></g></g><g class="nodes"><g id="my-svg-flowchart-D-0" class="node default warn" data-look="classic" transform="translate(288.636 42.5)"><rect width="106.5" height="69" x="-53.25" y="-34.5" class="basic label-container" rx="5" ry="5" style="fill:#fef3c7!important;stroke:#f59e0b!important;stroke-width:2.5px!important"/><g class="label" style="color:#92400e!important;font-weight:600!important" transform="translate(-41.25 -22.5)"><rect/><foreignObject width="82.5" height="45"><div xmlns="http://www.w3.org/1999/xhtml" style="color:#92400e!important;font-weight:600!important;display:table-cell;white-space:nowrap;line-height:1.5;max-width:200px;text-align:center"><span class="nodeLabel" style="fill:#fef3c7!important;stroke:#f59e0b!important;stroke-width:2.5px!important;color:#92400e!important;font-weight:600!important"><p>design<br/>anti-pattern</p></span></div></foreignObject></g></g><g id="my-svg-flowchart-O-1" class="node default bad" data-look="classic" transform="translate(554.95 96.5)"><rect width="113.188" height="69" x="-56.594" y="-34.5" class="basic label-container" rx="5" ry="5" style="fill:#ffe4e6!important;stroke:#f43f5e!important;stroke-width:2.5px!important"/><g class="label" style="color:#9f1239!important;font-weight:600!important" transform="translate(-44.594 -22.5)"><rect/><foreignObject width="89.188" height="45"><div xmlns="http://www.w3.org/1999/xhtml" style="color:#9f1239!important;font-weight:600!important;display:table-cell;white-space:nowrap;line-height:1.5;max-width:200px;text-align:center"><span class="nodeLabel" style="fill:#ffe4e6!important;stroke:#f43f5e!important;stroke-width:2.5px!important;color:#9f1239!important;font-weight:600!important"><p>operational<br/>failure mode</p></span></div></foreignObject></g></g><g id="my-svg-flowchart-H-3" class="node default worse" data-look="classic" transform="translate(815.13 150.5)"><rect width="106.5" height="69" x="-53.25" y="-34.5" class="basic label-container" rx="5" ry="5" style="fill:#ede9fe!important;stroke:#8b5cf6!important;stroke-width:2.5px!important"/><g class="label" style="color:#5b21b6!important;font-weight:600!important" transform="translate(-41.25 -22.5)"><rect/><foreignObject width="82.5" height="45"><div xmlns="http://www.w3.org/1999/xhtml" style="color:#5b21b6!important;font-weight:600!important;display:table-cell;white-space:nowrap;line-height:1.5;max-width:200px;text-align:center"><span class="nodeLabel" style="fill:#ede9fe!important;stroke:#8b5cf6!important;stroke-width:2.5px!important;color:#5b21b6!important;font-weight:600!important"><p>human<br/>anti-pattern</p></span></div></foreignObject></g></g><g id="my-svg-flowchart-CATCH1-4" class="node default win" data-look="classic"><g class="basic label-container outer-path"><path stroke="none" stroke-width="0" d="M-54.64-28.5H54.64l1.827.059 1.818.175 1.804.292 1.78.406 1.752.52 1.715.63 1.67.74 1.62.845 1.562.947 1.499 1.046 1.428 1.139 1.353 1.228 1.27 1.312 1.185 1.392 1.093 1.464.996 1.53.897 1.593.792 1.646.686 1.693.576 1.734.463 1.767.35 1.793.233 1.812.117 1.824V.913l-.117 1.824-.234 1.812-.349 1.793-.463 1.767-.576 1.734-.686 1.693-.792 1.646-.897 1.592-.996 1.531-1.093 1.464-1.184 1.392-1.271 1.312-1.353 1.228c-.514.41-1.029.82-1.428 1.14l-1.499 1.045-1.562.947-1.62.845c-.468.207-.937.414-1.67.74-.492.18-.983.36-1.715.63l-1.751.52-1.781.406-1.804.292-1.818.175-1.826.059H-54.641l-1.826-.059-1.818-.175-1.804-.292-1.78-.406-1.752-.52-1.715-.63c-.388-.173-.776-.345-1.67-.74-.344-.18-.688-.36-1.62-.845l-1.562-.947-1.499-1.046-1.428-1.139-1.353-1.228-1.27-1.312-1.185-1.392-1.093-1.464-.996-1.53-.897-1.593-.792-1.646-.686-1.693-.576-1.734-.463-1.767-.35-1.793-.233-1.812-.117-1.824V-.913l.117-1.824.234-1.812.349-1.793.463-1.767.576-1.734.686-1.693.792-1.646.897-1.592.996-1.531c.36-.48.718-.962 1.093-1.464l1.184-1.392 1.271-1.312 1.353-1.228 1.428-1.14 1.499-1.045 1.562-.947 1.62-.845c.48-.212.96-.424 1.67-.74l1.715-.63 1.751-.52 1.781-.406 1.804-.292c.67-.065 1.34-.13 1.818-.175l1.826-.059" style="fill:#ccfbf1!important;stroke:#14b8a6!important;stroke-width:2.5px!important" transform="translate(91.126 42.5)"/><path fill="none" stroke-dasharray="0 0" stroke-width="2.5" d="M-54.64-28.5H54.64m-109.28 0H54.64m0 0 1.827.059M54.64-28.5l1.826.059m0 0 1.818.175m-1.818-.175 1.818.175m0 0 1.804.292m-1.804-.292 1.804.292m0 0 1.78.406m-1.78-.406 1.78.406m0 0 1.752.52m-1.751-.52 1.751.52m0 0 1.715.63m-1.715-.63 1.715.63m0 0c.34.151.679.302 1.67.74m-1.67-.74c.529.235 1.058.47 1.67.74m0 0 1.62.845m-1.62-.845 1.62.845m0 0 1.562.947m-1.562-.947 1.562.947m0 0 1.499 1.046m-1.499-1.046 1.499 1.046m0 0 1.428 1.139m-1.428-1.14 1.428 1.14m0 0 1.353 1.228m-1.353-1.228 1.353 1.228m0 0 1.27 1.312m-1.27-1.312 1.27 1.312m0 0 1.185 1.392m-1.184-1.392 1.184 1.392m0 0 1.093 1.464m-1.093-1.464 1.093 1.464m0 0 .996 1.53m-.996-1.53.996 1.53m0 0 .897 1.593m-.897-1.592.897 1.592m0 0 .792 1.646m-.792-1.646.792 1.646m0 0 .686 1.693m-.686-1.693.686 1.693m0 0 .576 1.734m-.576-1.734.576 1.734m0 0 .463 1.767m-.463-1.767.463 1.767m0 0 .35 1.793m-.35-1.793.35 1.793m0 0 .233 1.812m-.234-1.812.234 1.812m0 0 .117 1.824m-.117-1.824.117 1.824m0 0V.913m0-1.826V.913m0 0-.117 1.824m.117-1.824-.117 1.824m0 0-.234 1.812m.234-1.812-.234 1.812m0 0-.349 1.793m.35-1.793-.35 1.793m0 0-.463 1.767m.463-1.767-.463 1.767m0 0-.576 1.734m.576-1.734-.576 1.734m0 0-.686 1.693m.686-1.693-.686 1.693m0 0-.792 1.646m.792-1.646-.792 1.646m0 0-.897 1.592m.897-1.592-.897 1.592m0 0-.996 1.531m.996-1.53-.996 1.53m0 0-1.093 1.464m1.093-1.464-1.093 1.464m0 0-1.184 1.392m1.184-1.392-1.184 1.392m0 0-1.271 1.312m1.27-1.312-1.27 1.312m0 0-1.353 1.228m1.353-1.228-1.353 1.228m0 0-1.428 1.14m1.428-1.14-1.428 1.14m0 0-1.499 1.045m1.499-1.046-1.499 1.046m0 0-1.562.947m1.562-.947-1.562.947m0 0-1.62.845m1.62-.845-1.62.845m0 0-1.67.74m1.67-.74-1.67.74m0 0-1.715.63m1.715-.63c-.428.156-.855.314-1.715.63m0 0-1.751.52m1.751-.52-1.751.52m0 0-1.781.406m1.78-.406-1.78.406m0 0-1.804.292m1.804-.292-1.804.292m0 0-1.818.175m1.818-.175-1.818.175m0 0-1.826.059m1.826-.059-1.826.059m0 0H-54.641m109.282 0H-54.641m0 0-1.826-.059m1.826.059-1.826-.059m0 0-1.818-.175m1.818.175-1.818-.175m0 0-1.804-.292m1.804.292-1.804-.292m0 0-1.78-.406m1.78.406-1.78-.406m0 0-1.752-.52m1.751.52-1.751-.52m0 0-1.715-.63m1.715.63-1.715-.63m0 0-1.67-.74m1.67.74-1.67-.74m0 0-1.62-.845m1.62.845-1.62-.845m0 0-1.562-.947m1.562.947-1.562-.947m0 0-1.499-1.046m1.499 1.046-1.499-1.046m0 0-1.428-1.139m1.428 1.14-1.428-1.14m0 0-1.353-1.228m1.353 1.228-1.353-1.228m0 0-1.27-1.312m1.27 1.312-1.27-1.312m0 0-1.185-1.392m1.184 1.392-1.184-1.392m0 0-1.093-1.464m1.093 1.464-1.093-1.464m0 0-.996-1.53m.996 1.53-.996-1.53m0 0-.897-1.593m.897 1.592-.897-1.592m0 0-.792-1.646m.792 1.646-.792-1.646m0 0-.686-1.693m.686 1.693-.686-1.693m0 0-.576-1.734m.576 1.734-.576-1.734m0 0-.463-1.767m.463 1.767-.463-1.767m0 0-.35-1.793m.35 1.793-.35-1.793m0 0-.233-1.812m.234 1.812-.234-1.812m0 0-.117-1.824m.117 1.824-.117-1.824m0 0V-.913m0 1.826V-.913m0 0 .117-1.824m-.117 1.824.117-1.824m0 0 .234-1.812m-.234 1.812.234-1.812m0 0 .349-1.793m-.35 1.793.35-1.793m0 0 .463-1.767m-.463 1.767.463-1.767m0 0 .576-1.734m-.576 1.734.576-1.734m0 0 .686-1.693m-.686 1.693.686-1.693m0 0 .792-1.646m-.792 1.646.792-1.646m0 0 .897-1.592m-.897 1.592.897-1.592m0 0 .996-1.531m-.996 1.53.996-1.53m0 0 1.093-1.464m-1.093 1.464 1.093-1.464m0 0 1.184-1.392m-1.184 1.392 1.184-1.392m0 0c.39-.4.778-.802 1.271-1.312m-1.27 1.312 1.27-1.312m0 0 1.353-1.228m-1.353 1.228 1.353-1.228m0 0 1.428-1.14m-1.428 1.14 1.428-1.14m0 0 1.499-1.045m-1.499 1.046 1.499-1.046m0 0 1.562-.947m-1.562.947 1.562-.947m0 0 1.62-.845m-1.62.845 1.62-.845m0 0 1.67-.74m-1.67.74 1.67-.74m0 0 1.715-.63m-1.715.63 1.715-.63m0 0 1.751-.52m-1.751.52 1.751-.52m0 0 1.781-.406m-1.78.406 1.78-.406m0 0 1.804-.292m-1.804.292 1.804-.292m0 0 1.818-.175m-1.818.175 1.818-.175m0 0 1.826-.059m-1.826.059 1.826-.059m0 0" style="fill:#ccfbf1!important;stroke:#14b8a6!important;stroke-width:2.5px!important" transform="translate(91.126 42.5)"/></g><g class="label" style="color:#115e59!important;font-weight:600!important" transform="translate(21.11 20)"><rect/><foreignObject width="140.031" height="45"><div xmlns="http://www.w3.org/1999/xhtml" style="color:#115e59!important;font-weight:600!important;display:table-cell;white-space:nowrap;line-height:1.5;max-width:200px;text-align:center"><span class="nodeLabel" style="fill:#ccfbf1!important;stroke:#14b8a6!important;stroke-width:2.5px!important;color:#115e59!important;font-weight:600!important"><p>cheapest catch:<br/>this page, at design</p></span></div></foreignObject></g></g><g id="my-svg-flowchart-CATCH2-6" class="node default ok" data-look="classic"><g class="basic label-container outer-path"><path stroke="none" stroke-width="0" d="M-30.898-28.5h61.796l1.826.059 1.819.175 1.803.292 1.782.406 1.751.52 1.715.63c.41.183.82.364 1.67.74l1.62.845 1.562.947 1.499 1.046 1.428 1.139 1.352 1.228 1.271 1.312 1.185 1.392 1.092 1.464.997 1.53.897 1.593.792 1.646.686 1.693.575 1.734.464 1.767.35 1.793.233 1.812.117 1.824V.913l-.117 1.824c-.05.379-.098.757-.234 1.812l-.35 1.793c-.105.403-.21.806-.463 1.767l-.575 1.734-.686 1.693-.792 1.646-.897 1.592-.997 1.531-1.092 1.464-1.185 1.392-1.27 1.312-1.353 1.228-1.428 1.14c-.54.375-1.078.751-1.499 1.045l-1.562.947-1.62.845-1.67.74-1.715.63c-.658.195-1.317.39-1.751.52l-1.782.406-1.803.292-1.819.175-1.826.059h-61.796l-1.826-.059-1.819-.175-1.803-.292-1.782-.406-1.751-.52-1.715-.63-1.67-.74-1.62-.845-1.562-.947-1.499-1.046-1.428-1.139-1.352-1.228-1.271-1.312-1.185-1.392-1.092-1.464-.997-1.53-.897-1.593-.792-1.646-.686-1.693-.575-1.734-.464-1.767-.35-1.793c-.06-.475-.122-.95-.233-1.812l-.117-1.824V-.913l.117-1.824.234-1.812.35-1.793.463-1.767.575-1.734.686-1.693.792-1.646.897-1.592.997-1.531 1.092-1.464 1.185-1.392 1.27-1.312 1.353-1.228 1.428-1.14 1.499-1.045 1.562-.947 1.62-.845 1.67-.74 1.715-.63 1.751-.52 1.782-.406 1.803-.292 1.819-.175 1.826-.059" style="fill:#e0e7ff!important;stroke:#6366f1!important;stroke-width:2.5px!important" transform="translate(288.636 150.5)"/><path fill="none" stroke-dasharray="0 0" stroke-width="2.5" d="M-30.898-28.5h61.796m-61.796 0h61.796m0 0 1.826.059m-1.826-.059 1.826.059m0 0 1.819.175m-1.819-.175 1.819.175m0 0 1.803.292m-1.803-.292 1.803.292m0 0 1.782.406m-1.782-.406 1.782.406m0 0 1.751.52m-1.751-.52 1.751.52m0 0 1.715.63m-1.715-.63 1.715.63m0 0 1.67.74m-1.67-.74 1.67.74m0 0c.41.215.821.429 1.62.845m-1.62-.845 1.62.845m0 0 1.562.947m-1.562-.947 1.562.947m0 0 1.499 1.046m-1.499-1.046 1.499 1.046m0 0 1.428 1.139m-1.428-1.14 1.428 1.14m0 0 1.352 1.228m-1.352-1.228 1.352 1.228m0 0 1.271 1.312m-1.27-1.312 1.27 1.312m0 0 1.185 1.392m-1.185-1.392 1.185 1.392m0 0 1.092 1.464m-1.092-1.464 1.092 1.464m0 0 .997 1.53m-.997-1.53.997 1.53m0 0 .897 1.593m-.897-1.592.897 1.592m0 0 .792 1.646m-.792-1.646.792 1.646m0 0 .686 1.693m-.686-1.693.686 1.693m0 0 .575 1.734m-.575-1.734.575 1.734m0 0 .464 1.767m-.464-1.767.464 1.767m0 0c.12.613.238 1.225.35 1.793m-.35-1.793.35 1.793m0 0c.075.589.15 1.177.233 1.812m-.234-1.812.234 1.812m0 0 .117 1.824m-.117-1.824.117 1.824m0 0V.913m0-1.826V.913m0 0-.117 1.824m.117-1.824-.117 1.824m0 0-.234 1.812m.234-1.812-.234 1.812m0 0-.35 1.793m.35-1.793-.35 1.793m0 0-.463 1.767m.464-1.767-.464 1.767m0 0-.575 1.734m.575-1.734-.575 1.734m0 0-.686 1.693m.686-1.693-.686 1.693m0 0-.792 1.646m.792-1.646-.792 1.646m0 0-.897 1.592m.897-1.592-.897 1.592m0 0-.997 1.531m.997-1.53-.997 1.53m0 0-1.092 1.464m1.092-1.464-1.092 1.464m0 0-1.185 1.392m1.185-1.392-1.185 1.392m0 0-1.27 1.312m1.27-1.312-1.27 1.312m0 0c-.31.28-.618.56-1.353 1.228m1.352-1.228-1.352 1.228m0 0-1.428 1.14m1.428-1.14-1.428 1.14m0 0-1.499 1.045m1.499-1.046-1.499 1.046m0 0-1.562.947m1.562-.947-1.562.947m0 0-1.62.845m1.62-.845-1.62.845m0 0-1.67.74m1.67-.74-1.67.74m0 0-1.715.63m1.715-.63-1.715.63m0 0-1.751.52m1.751-.52-1.751.52m0 0-1.782.406m1.782-.406-1.782.406m0 0-1.803.292m1.803-.292-1.803.292m0 0-1.819.175m1.819-.175-1.819.175m0 0-1.826.059m1.826-.059-1.826.059m0 0h-61.796m61.796 0h-61.796m0 0-1.826-.059m1.826.059-1.826-.059m0 0-1.819-.175m1.819.175-1.819-.175m0 0-1.803-.292m1.803.292-1.803-.292m0 0-1.782-.406m1.782.406-1.782-.406m0 0-1.751-.52m1.751.52-1.751-.52m0 0-1.715-.63m1.715.63-1.715-.63m0 0-1.67-.74m1.67.74c-.385-.172-.77-.342-1.67-.74m0 0-1.62-.845m1.62.845-1.62-.845m0 0-1.562-.947m1.562.947-1.562-.947m0 0-1.499-1.046m1.499 1.046-1.499-1.046m0 0-1.428-1.139m1.428 1.14-1.428-1.14m0 0-1.352-1.228m1.352 1.228-1.352-1.228m0 0-1.271-1.312m1.27 1.312-1.27-1.312m0 0-1.185-1.392m1.185 1.392-1.185-1.392m0 0-1.092-1.464m1.092 1.464-1.092-1.464m0 0-.997-1.53m.997 1.53-.997-1.53m0 0-.897-1.593m.897 1.592-.897-1.592m0 0-.792-1.646m.792 1.646-.792-1.646m0 0-.686-1.693m.686 1.693-.686-1.693m0 0-.575-1.734m.575 1.734-.575-1.734m0 0c-.13-.491-.258-.983-.464-1.767m.464 1.767-.464-1.767m0 0-.35-1.793m.35 1.793-.35-1.793m0 0-.233-1.812m.234 1.812-.234-1.812m0 0-.117-1.824m.117 1.824-.117-1.824m0 0V-.913m0 1.826V-.913m0 0 .117-1.824m-.117 1.824.117-1.824m0 0 .234-1.812m-.234 1.812.234-1.812m0 0c.137-.705.274-1.41.35-1.793m-.35 1.793.35-1.793m0 0 .463-1.767m-.464 1.767.464-1.767m0 0 .575-1.734m-.575 1.734.575-1.734m0 0 .686-1.693m-.686 1.693.686-1.693m0 0 .792-1.646m-.792 1.646.792-1.646m0 0 .897-1.592m-.897 1.592.897-1.592m0 0 .997-1.531m-.997 1.53.997-1.53m0 0 1.092-1.464m-1.092 1.464 1.092-1.464m0 0 1.185-1.392m-1.185 1.392 1.185-1.392m0 0 1.27-1.312m-1.27 1.312 1.27-1.312m0 0 1.353-1.228m-1.352 1.228 1.352-1.228m0 0 1.428-1.14m-1.428 1.14 1.428-1.14m0 0 1.499-1.045m-1.499 1.046 1.499-1.046m0 0 1.562-.947m-1.562.947 1.562-.947m0 0 1.62-.845m-1.62.845c.463-.24.925-.482 1.62-.845m0 0 1.67-.74m-1.67.74 1.67-.74m0 0 1.715-.63m-1.715.63 1.715-.63m0 0 1.751-.52m-1.751.52 1.751-.52m0 0 1.782-.406m-1.782.406 1.782-.406m0 0 1.803-.292m-1.803.292 1.803-.292m0 0 1.819-.175m-1.819.175 1.819-.175m0 0 1.826-.059m-1.826.059 1.826-.059m0 0" style="fill:#e0e7ff!important;stroke:#6366f1!important;stroke-width:2.5px!important" transform="translate(288.636 150.5)"/></g><g class="label" style="color:#312e81!important;font-weight:600!important" transform="translate(242.362 128)"><rect/><foreignObject width="92.547" height="45"><div xmlns="http://www.w3.org/1999/xhtml" style="color:#312e81!important;font-weight:600!important;display:table-cell;white-space:nowrap;line-height:1.5;max-width:200px;text-align:center"><span class="nodeLabel" style="fill:#e0e7ff!important;stroke:#6366f1!important;stroke-width:2.5px!important;color:#312e81!important;font-weight:600!important"><p>still cheap:<br/>observability</p></span></div></foreignObject></g></g><g id="my-svg-flowchart-CATCH3-8" class="node default stop" data-look="classic"><g class="basic label-container outer-path"><path stroke="none" stroke-width="0" d="M-43.398-28.5h86.796l1.826.059 1.819.175 1.803.292 1.782.406 1.751.52 1.715.63 1.67.74 1.62.845 1.562.947 1.499 1.046 1.428 1.139 1.352 1.228 1.271 1.312 1.185 1.392 1.092 1.464.997 1.53.897 1.593.792 1.646.686 1.693.575 1.734.464 1.767.35 1.793c.06.48.123.96.233 1.812l.117 1.824V.913l-.117 1.824-.234 1.812-.35 1.793-.463 1.767-.575 1.734-.686 1.693-.792 1.646-.897 1.592-.997 1.531-1.092 1.464-1.185 1.392-1.27 1.312-1.353 1.228-1.428 1.14-1.499 1.045-1.562.947-1.62.845-1.67.74c-.48.175-.958.352-1.715.63l-1.751.52-1.782.406-1.803.292-1.819.175-1.826.059h-86.796l-1.826-.059-1.819-.175-1.803-.292-1.782-.406-1.751-.52-1.715-.63-1.67-.74c-.515-.27-1.03-.538-1.62-.845l-1.562-.947-1.499-1.046-1.428-1.139-1.352-1.228-1.271-1.312-1.185-1.392-1.092-1.464-.997-1.53-.897-1.593-.792-1.646-.686-1.693-.575-1.734-.464-1.767-.35-1.793-.233-1.812-.117-1.824V-.913l.117-1.824.234-1.812.35-1.793.463-1.767.575-1.734.686-1.693.792-1.646.897-1.592.997-1.531 1.092-1.464 1.185-1.392 1.27-1.312 1.353-1.228 1.428-1.14 1.499-1.045 1.562-.947 1.62-.845 1.67-.74c.548-.2 1.096-.402 1.715-.63l1.751-.52 1.782-.406 1.803-.292 1.819-.175 1.826-.059" style="fill:#e2e8f0!important;stroke:#94a3b8!important;stroke-width:2.5px!important" transform="translate(554.95 204.5)"/><path fill="none" stroke-dasharray="0 0" stroke-width="2.5" d="M-43.398-28.5h86.796m-86.796 0h86.796m0 0 1.826.059m-1.826-.059 1.826.059m0 0 1.819.175m-1.819-.175 1.819.175m0 0 1.803.292m-1.803-.292 1.803.292m0 0 1.782.406m-1.782-.406 1.782.406m0 0 1.751.52m-1.751-.52 1.751.52m0 0 1.715.63m-1.715-.63 1.715.63m0 0 1.67.74m-1.67-.74 1.67.74m0 0 1.62.845m-1.62-.845 1.62.845m0 0 1.562.947m-1.562-.947 1.562.947m0 0 1.499 1.046m-1.499-1.046 1.499 1.046m0 0 1.428 1.139m-1.428-1.14 1.428 1.14m0 0 1.352 1.228m-1.352-1.228 1.352 1.228m0 0 1.271 1.312m-1.27-1.312 1.27 1.312m0 0 1.185 1.392m-1.185-1.392 1.185 1.392m0 0 1.092 1.464m-1.092-1.464 1.092 1.464m0 0 .997 1.53m-.997-1.53.997 1.53m0 0 .897 1.593m-.897-1.592.897 1.592m0 0 .792 1.646m-.792-1.646.792 1.646m0 0 .686 1.693m-.686-1.693.686 1.693m0 0 .575 1.734m-.575-1.734.575 1.734m0 0 .464 1.767m-.464-1.767.464 1.767m0 0c.117.602.234 1.204.35 1.793m-.35-1.793.35 1.793m0 0 .233 1.812m-.234-1.812.234 1.812m0 0 .117 1.824m-.117-1.824.117 1.824m0 0V.913m0-1.826V.913m0 0-.117 1.824m.117-1.824-.117 1.824m0 0-.234 1.812m.234-1.812-.234 1.812m0 0-.35 1.793m.35-1.793-.35 1.793m0 0c-.137.525-.274 1.05-.463 1.767m.464-1.767-.464 1.767m0 0-.575 1.734m.575-1.734-.575 1.734m0 0-.686 1.693m.686-1.693-.686 1.693m0 0-.792 1.646m.792-1.646-.792 1.646m0 0-.897 1.592m.897-1.592-.897 1.592m0 0-.997 1.531m.997-1.53-.997 1.53m0 0-1.092 1.464m1.092-1.464-1.092 1.464m0 0-1.185 1.392m1.185-1.392-1.185 1.392m0 0-1.27 1.312m1.27-1.312-1.27 1.312m0 0-1.353 1.228m1.352-1.228-1.352 1.228m0 0c-.52.416-1.042.83-1.428 1.14m1.428-1.14-1.428 1.14m0 0-1.499 1.045m1.499-1.046-1.499 1.046m0 0-1.562.947m1.562-.947-1.562.947m0 0-1.62.845m1.62-.845-1.62.845m0 0-1.67.74m1.67-.74-1.67.74m0 0-1.715.63m1.715-.63-1.715.63m0 0-1.751.52m1.751-.52-1.751.52m0 0-1.782.406m1.782-.406-1.782.406m0 0-1.803.292m1.803-.292-1.803.292m0 0-1.819.175m1.819-.175-1.819.175m0 0-1.826.059m1.826-.059-1.826.059m0 0h-86.796m86.796 0h-86.796m0 0-1.826-.059m1.826.059-1.826-.059m0 0-1.819-.175m1.819.175-1.819-.175m0 0-1.803-.292m1.803.292-1.803-.292m0 0-1.782-.406m1.782.406-1.782-.406m0 0-1.751-.52m1.751.52-1.751-.52m0 0-1.715-.63m1.715.63-1.715-.63m0 0c-.62-.276-1.241-.55-1.67-.74m1.67.74-1.67-.74m0 0-1.62-.845m1.62.845-1.62-.845m0 0-1.562-.947m1.562.947-1.562-.947m0 0-1.499-1.046m1.499 1.046-1.499-1.046m0 0-1.428-1.139m1.428 1.14-1.428-1.14m0 0-1.352-1.228m1.352 1.228-1.352-1.228m0 0-1.271-1.312m1.27 1.312-1.27-1.312m0 0-1.185-1.392m1.185 1.392-1.185-1.392m0 0-1.092-1.464m1.092 1.464-1.092-1.464m0 0-.997-1.53m.997 1.53-.997-1.53m0 0-.897-1.593m.897 1.592-.897-1.592m0 0-.792-1.646m.792 1.646-.792-1.646m0 0-.686-1.693m.686 1.693-.686-1.693m0 0-.575-1.734m.575 1.734-.575-1.734m0 0-.464-1.767m.464 1.767-.464-1.767m0 0-.35-1.793m.35 1.793-.35-1.793m0 0-.233-1.812m.234 1.812-.234-1.812m0 0-.117-1.824m.117 1.824-.117-1.824m0 0V-.913m0 1.826V-.913m0 0 .117-1.824m-.117 1.824.117-1.824m0 0 .234-1.812m-.234 1.812.234-1.812m0 0 .35-1.793m-.35 1.793c.115-.593.23-1.186.35-1.793m0 0c.11-.424.221-.848.463-1.767m-.464 1.767.464-1.767m0 0 .575-1.734m-.575 1.734.575-1.734m0 0 .686-1.693m-.686 1.693.686-1.693m0 0 .792-1.646m-.792 1.646.792-1.646m0 0 .897-1.592m-.897 1.592.897-1.592m0 0 .997-1.531m-.997 1.53.997-1.53m0 0 1.092-1.464m-1.092 1.464 1.092-1.464m0 0 1.185-1.392m-1.185 1.392 1.185-1.392m0 0c.484-.5.97-1 1.27-1.312m-1.27 1.312 1.27-1.312m0 0 1.353-1.228m-1.352 1.228 1.352-1.228m0 0 1.428-1.14m-1.428 1.14 1.428-1.14m0 0 1.499-1.045m-1.499 1.046 1.499-1.046m0 0 1.562-.947m-1.562.947 1.562-.947m0 0 1.62-.845m-1.62.845 1.62-.845m0 0c.54-.238 1.079-.477 1.67-.74m-1.67.74 1.67-.74m0 0 1.715-.63m-1.715.63 1.715-.63m0 0 1.751-.52m-1.751.52 1.751-.52m0 0 1.782-.406m-1.782.406 1.782-.406m0 0c.486-.08.972-.158 1.803-.292m-1.803.292 1.803-.292m0 0 1.819-.175m-1.819.175 1.819-.175m0 0 1.826-.059m-1.826.059 1.826-.059m0 0" style="fill:#e2e8f0!important;stroke:#94a3b8!important;stroke-width:2.5px!important" transform="translate(554.95 204.5)"/></g><g class="label" style="color:#334155!important;font-weight:600!important" transform="translate(496.177 182)"><rect/><foreignObject width="117.547" height="45"><div xmlns="http://www.w3.org/1999/xhtml" style="color:#334155!important;font-weight:600!important;display:table-cell;white-space:nowrap;line-height:1.5;max-width:200px;text-align:center"><span class="nodeLabel" style="fill:#e2e8f0!important;stroke:#94a3b8!important;stroke-width:2.5px!important;color:#334155!important;font-weight:600!important"><p>most expensive:<br/>culture change</p></span></div></foreignObject></g></g></g></g><marker id="my-svg_flowchart-v2-pointEnd__475569" class="marker flowchart-v2" markerHeight="8" markerUnits="userSpaceOnUse" markerWidth="8" orient="auto" refX="5" refY="5" viewBox="0 0 10 10"><path d="m0 0 10 5-10 5z" class="arrowMarkerPath" style="stroke-width:1;stroke-dasharray:1,0"/></marker><defs><filter id="my-svg-drop-shadow" width="130%" height="130%"><feDropShadow dx="4" dy="4" flood-color="#000" flood-opacity=".06" stdDeviation="0"/></filter></defs><defs><filter id="my-svg-drop-shadow-small" width="150%" height="150%"><feDropShadow dx="2" dy="2" flood-color="#000" flood-opacity=".06" stdDeviation="0"/></filter></defs><linearGradient id="my-svg-gradient" x1="0%" x2="100%" y1="0%" y2="0%" gradientUnits="objectBoundingBox"><stop offset="0%" stop-color="hsl(40.5882352941, 60%, 83.3333333333%)"/><stop offset="100%" stop-color="hsl(-79.4117647059, 60%, 83.3333333333%)"/></linearGradient></svg>