<svg xmlns="http://www.w3.org/2000/svg" id="my-svg" width="100%" aria-roledescription="flowchart-v2" class="flowchart" style="font-size:15px;fill:#333;max-width:696.627px;background-color:transparent" viewBox="0 0 696.627 427"><style><![CDATA[@keyframes edge-animation-frame{0%{stroke-dashoffset:0}}@keyframes dash{to{stroke-dashoffset:0}}#my-svg .edge-thickness-normal{stroke-width:1px}#my-svg .edge-pattern-solid{stroke-dasharray:0}#my-svg .marker{fill:#475569;stroke:#475569}#my-svg .marker.cross{stroke:#475569}#my-svg svg{font-size:15px}#my-svg p{margin:0}#my-svg .label{color:#333}#my-svg span{fill:#333;color:#333}#my-svg .node circle,#my-svg .node path,#my-svg .node rect{fill:#fff4dd;stroke:#edb;stroke-width:1px}#my-svg .flowchart-link{stroke:#475569;fill:none}#my-svg .edgeLabel,#my-svg .node .label{text-align:center}#my-svg .edgeLabel,#my-svg .edgeLabel p,#my-svg .edgeLabel rect{background-color:#f8fafc}#my-svg .edgeLabel rect{opacity:.5;fill:#f8fafc}#my-svg .labelBkg{background-color:rgba(248,250,252,.5)}#my-svg [data-look=neo].node circle,#my-svg [data-look=neo].node rect{stroke:url(#my-svg-gradient);filter:drop-shadow(1px 2px 2px #b9b9b9)}#my-svg [data-look=neo].node path{stroke:url(#my-svg-gradient);stroke-width:1px}#my-svg [data-look=neo].node .outer-path{filter:drop-shadow(1px 2px 2px #b9b9b9)}#my-svg :root{--mermaid-font-family:"trebuchet ms",verdana,arial,sans-serif}#my-svg .file span,#my-svg .file>*{fill:#f1f5f9!important;stroke:#64748b!important;color:#334155!important}#my-svg .file span,#my-svg .file>*,#my-svg .human>*,#my-svg .limit>*,#my-svg .step>*,#my-svg .warn>*{stroke-width:2.5px!important;font-weight:600!important}#my-svg .step>*{fill:#e0e7ff!important;stroke:#6366f1!important;color:#312e81!important}#my-svg .warn>*{fill:#fef3c7!important;stroke:#f59e0b!important;color:#92400e!important}#my-svg .limit>*{fill:#ffe4e6!important;stroke:#f43f5e!important;color:#9f1239!important}#my-svg .human>*{fill:#fef3c7!important;stroke:#f59e0b!important;color:#92400e!important}]]></style><marker id="my-svg_flowchart-v2-pointEnd" class="marker flowchart-v2" markerHeight="8" markerUnits="userSpaceOnUse" markerWidth="8" orient="auto" refX="5" refY="5" viewBox="0 0 10 10"><path d="m0 0 10 5-10 5z" class="arrowMarkerPath" style="stroke-width:1;stroke-dasharray:1,0"/></marker><marker id="my-svg_flowchart-v2-pointStart" class="marker flowchart-v2" markerHeight="8" markerUnits="userSpaceOnUse" markerWidth="8" orient="auto" refX="4.5" refY="5" viewBox="0 0 10 10"><path d="m0 5 10 5V0z" class="arrowMarkerPath" style="stroke-width:1;stroke-dasharray:1,0"/></marker><marker id="my-svg_flowchart-v2-pointEnd-margin" class="marker flowchart-v2" markerHeight="14" markerUnits="userSpaceOnUse" markerWidth="10.5" orient="auto" refX="11.5" refY="7" viewBox="0 0 11.5 14"><path d="m0 0 11.5 7L0 14z" class="arrowMarkerPath" style="stroke-width:0;stroke-dasharray:1,0"/></marker><marker id="my-svg_flowchart-v2-pointStart-margin" class="marker flowchart-v2" markerHeight="14" markerUnits="userSpaceOnUse" markerWidth="11.5" orient="auto" refX="1" refY="7" viewBox="0 0 11.5 14"><path d="m0 7 11.5 7V0z" class="arrowMarkerPath" style="stroke-width:0;stroke-dasharray:1,0"/></marker><marker id="my-svg_flowchart-v2-circleEnd" class="marker flowchart-v2" markerHeight="11" markerUnits="userSpaceOnUse" markerWidth="11" orient="auto" refX="11" refY="5" viewBox="0 0 10 10"><circle cx="5" cy="5" r="5" class="arrowMarkerPath" style="stroke-width:1;stroke-dasharray:1,0"/></marker><marker id="my-svg_flowchart-v2-circleStart" class="marker flowchart-v2" markerHeight="11" markerUnits="userSpaceOnUse" markerWidth="11" orient="auto" refX="-1" refY="5" viewBox="0 0 10 10"><circle cx="5" cy="5" r="5" class="arrowMarkerPath" style="stroke-width:1;stroke-dasharray:1,0"/></marker><marker id="my-svg_flowchart-v2-circleEnd-margin" class="marker flowchart-v2" markerHeight="14" markerUnits="userSpaceOnUse" markerWidth="14" orient="auto" refX="12.25" refY="5" viewBox="0 0 10 10"><circle cx="5" cy="5" r="5" class="arrowMarkerPath" style="stroke-width:0;stroke-dasharray:1,0"/></marker><marker id="my-svg_flowchart-v2-circleStart-margin" class="marker flowchart-v2" markerHeight="14" markerUnits="userSpaceOnUse" markerWidth="14" orient="auto" refX="-2" refY="5" viewBox="0 0 10 10"><circle cx="5" cy="5" r="5" class="arrowMarkerPath" style="stroke-width:0;stroke-dasharray:1,0"/></marker><marker id="my-svg_flowchart-v2-crossEnd" class="marker cross flowchart-v2" markerHeight="11" markerUnits="userSpaceOnUse" markerWidth="11" orient="auto" refX="12" refY="5.2" viewBox="0 0 11 11"><path d="m1 1 9 9m0-9-9 9" class="arrowMarkerPath" style="stroke-width:2;stroke-dasharray:1,0"/></marker><marker id="my-svg_flowchart-v2-crossStart" class="marker cross flowchart-v2" markerHeight="11" markerUnits="userSpaceOnUse" markerWidth="11" orient="auto" refX="-1" refY="5.2" viewBox="0 0 11 11"><path d="m1 1 9 9m0-9-9 9" class="arrowMarkerPath" style="stroke-width:2;stroke-dasharray:1,0"/></marker><marker id="my-svg_flowchart-v2-crossEnd-margin" class="marker cross flowchart-v2" markerHeight="12" markerUnits="userSpaceOnUse" markerWidth="12" orient="auto" refX="17.7" refY="7.5" viewBox="0 0 15 15"><path d="m1 1 13 13M1 14 14 1" class="arrowMarkerPath" style="stroke-width:2.5"/></marker><marker id="my-svg_flowchart-v2-crossStart-margin" class="marker cross flowchart-v2" markerHeight="12" markerUnits="userSpaceOnUse" markerWidth="12" orient="auto" refX="-3.5" refY="7.5" viewBox="0 0 15 15"><path d="m1 1 13 13M1 14 14 1" class="arrowMarkerPath" style="stroke-width:2.5;stroke-dasharray:1,0"/></marker><g class="root"><g class="edgePaths"><path id="my-svg-L_L_V_0" marker-end="url(#my-svg_flowchart-v2-pointEnd__475569)" d="M159.766 42.5h6.01c6.01 0 18.031 0 38.649 20.334 20.618 20.333 49.832 61 64.44 81.334l14.607 20.333" class="edge-thickness-normal edge-pattern-solid edge-thickness-normal edge-pattern-solid flowchart-link" data-edge="true" data-et="edge" data-id="L_L_V_0" data-look="classic" data-points="W3sieCI6MTU5Ljc2NTYyNSwieSI6NDIuNX0seyJ4IjoxOTUuODI4MTI1LCJ5Ijo0Mi41fSx7IngiOjI4NS44MDU3ODM5OTEyMjgwNSwieSI6MTY3Ljc1fV0=" style="stroke:#475569;stroke-width:2px"/><path id="my-svg-L_S_V_0" marker-end="url(#my-svg_flowchart-v2-pointEnd__475569)" d="M168.328 156.5h4.583c4.584 0 13.75 0 22.312 1.846s16.52 5.538 20.498 7.384l3.979 1.847" class="edge-thickness-normal edge-pattern-solid edge-thickness-normal edge-pattern-solid flowchart-link" data-edge="true" data-et="edge" data-id="L_S_V_0" data-look="classic" data-points="W3sieCI6MTY4LjMyODEyNSwieSI6MTU2LjV9LHsieCI6MTk1LjgyODEyNSwieSI6MTU2LjV9LHsieCI6MjIzLjMyODEyNSwieSI6MTY5LjI2MDExMTkzMDgwNjR9XQ==" style="stroke:#475569;stroke-width:2px"/><path id="my-svg-L_E_V_0" marker-end="url(#my-svg_flowchart-v2-pointEnd__475569)" d="M157.258 270.5h6.428c6.429 0 19.285 0 29.692-1.846s18.365-5.538 22.343-7.384l3.979-1.847" class="edge-thickness-normal edge-pattern-solid edge-thickness-normal edge-pattern-solid flowchart-link" data-edge="true" data-et="edge" data-id="L_E_V_0" data-look="classic" data-points="W3sieCI6MTU3LjI1NzgxMjUsInkiOjI3MC41fSx7IngiOjE5NS44MjgxMjUsInkiOjI3MC41fSx7IngiOjIyMy4zMjgxMjUsInkiOjI1Ny43Mzk4ODgwNjkxOTM1N31d" style="stroke:#475569;stroke-width:2px"/><path id="my-svg-L_V_H_0" marker-end="url(#my-svg_flowchart-v2-pointEnd__475569)" d="M414.016 213.5h4.583c4.583 0 13.75 0 22.333.071 8.584.072 16.584.215 20.584.286l4 .072" class="edge-thickness-normal edge-pattern-solid edge-thickness-normal edge-pattern-solid flowchart-link" data-edge="true" data-et="edge" data-id="L_V_H_0" data-look="classic" data-points="W3sieCI6NDE0LjAxNTYyNSwieSI6MjEzLjV9LHsieCI6NDQxLjUxNTYyNSwieSI6MjEzLjV9LHsieCI6NDY5LjUxNTYyNDk5OTk5ODQsInkiOjIxMy45OTk5OTk5OTk5OTk5N31d" style="stroke:#475569;stroke-width:2px"/><path id="my-svg-L_SIL_V_0" marker-end="url(#my-svg_flowchart-v2-pointEnd__475569)" d="M168.281 384.5h4.591c4.592 0 13.774 0 32.972-20.334 19.199-20.333 48.413-61 63.021-81.334l14.607-20.333" class="edge-thickness-normal edge-pattern-solid flowchart-link" data-edge="true" data-et="edge" data-id="L_SIL_V_0" data-look="classic" data-points="W3sieCI6MTY4LjI4MTI1LCJ5IjozODQuNX0seyJ4IjoxOTUuODI4MTI1LCJ5IjozODQuNX0seyJ4IjoyODUuODA1NzgzOTkxMjI4MDUsInkiOjI1OS4yNX1d" style="stroke-dasharray:2;stroke:#475569;stroke-width:2px"/></g><g class="edgeLabels"><g class="edgeLabel"><foreignObject width="0" height="0" class="label" data-id="L_L_V_0"><div xmlns="http://www.w3.org/1999/xhtml" class="labelBkg" style="display:table-cell;white-space:nowrap;line-height:1.5;max-width:200px;text-align:center"><span class="edgeLabel"/></div></foreignObject></g><g class="edgeLabel"><foreignObject width="0" height="0" class="label" data-id="L_S_V_0"><div xmlns="http://www.w3.org/1999/xhtml" class="labelBkg" style="display:table-cell;white-space:nowrap;line-height:1.5;max-width:200px;text-align:center"><span class="edgeLabel"/></div></foreignObject></g><g class="edgeLabel"><foreignObject width="0" height="0" class="label" data-id="L_E_V_0"><div xmlns="http://www.w3.org/1999/xhtml" class="labelBkg" style="display:table-cell;white-space:nowrap;line-height:1.5;max-width:200px;text-align:center"><span class="edgeLabel"/></div></foreignObject></g><g class="edgeLabel"><foreignObject width="0" height="0" class="label" data-id="L_V_H_0"><div xmlns="http://www.w3.org/1999/xhtml" class="labelBkg" style="display:table-cell;white-space:nowrap;line-height:1.5;max-width:200px;text-align:center"><span class="edgeLabel"/></div></foreignObject></g><g class="edgeLabel"><foreignObject width="0" height="0" class="label" data-id="L_SIL_V_0"><div xmlns="http://www.w3.org/1999/xhtml" class="labelBkg" style="display:table-cell;white-space:nowrap;line-height:1.5;max-width:200px;text-align:center"><span class="edgeLabel"/></div></foreignObject></g></g><g class="nodes"><g id="my-svg-flowchart-L-0" class="node default file" data-look="classic" transform="translate(88.164 42.5)"><rect width="143.203" height="69" x="-71.602" y="-34.5" class="basic label-container" rx="5" ry="5" style="fill:#f1f5f9!important;stroke:#64748b!important;stroke-width:2.5px!important"/><g class="label" style="color:#334155!important;font-weight:600!important" transform="translate(-59.602 -22.5)"><rect/><foreignObject width="119.203" height="45"><div xmlns="http://www.w3.org/1999/xhtml" style="color:#334155!important;font-weight:600!important;display:table-cell;white-space:nowrap;line-height:1.5;max-width:200px;text-align:center"><span class="nodeLabel" style="color:#334155!important;font-weight:600!important"><p>run log<br/>one line per beat</p></span></div></foreignObject></g></g><g id="my-svg-flowchart-V-1" class="node default step" data-look="classic" transform="translate(318.672 213.5)"><rect width="190.688" height="91.5" x="-95.344" y="-45.75" class="basic label-container" rx="5" ry="5" style="fill:#e0e7ff!important;stroke:#6366f1!important;stroke-width:2.5px!important"/><g class="label" style="color:#312e81!important;font-weight:600!important" transform="translate(-83.344 -33.75)"><rect/><foreignObject width="166.688" height="67.5"><div xmlns="http://www.w3.org/1999/xhtml" style="color:#312e81!important;font-weight:600!important;display:table-cell;white-space:nowrap;line-height:1.5;max-width:200px;text-align:center"><span class="nodeLabel" style="fill:#e0e7ff!important;stroke:#6366f1!important;stroke-width:2.5px!important;color:#312e81!important;font-weight:600!important"><p>the 5-minute view:<br/>what ran · what it cost ·<br/>what asked for help</p></span></div></foreignObject></g></g><g id="my-svg-flowchart-S-2" class="node default file" data-look="classic" transform="translate(88.164 156.5)"><rect width="160.328" height="69" x="-80.164" y="-34.5" class="basic label-container" rx="5" ry="5" style="fill:#f1f5f9!important;stroke:#64748b!important;stroke-width:2.5px!important"/><g class="label" style="color:#334155!important;font-weight:600!important" transform="translate(-68.164 -22.5)"><rect/><foreignObject width="136.328" height="45"><div xmlns="http://www.w3.org/1999/xhtml" style="color:#334155!important;font-weight:600!important;display:table-cell;white-space:nowrap;line-height:1.5;max-width:200px;text-align:center"><span class="nodeLabel" style="color:#334155!important;font-weight:600!important"><p>spines<br/>narrative + lessons</p></span></div></foreignObject></g></g><g id="my-svg-flowchart-E-4" class="node default warn" data-look="classic" transform="translate(88.164 270.5)"><rect width="138.188" height="69" x="-69.094" y="-34.5" class="basic label-container" rx="5" ry="5" style="fill:#fef3c7!important;stroke:#f59e0b!important;stroke-width:2.5px!important"/><g class="label" style="color:#92400e!important;font-weight:600!important" transform="translate(-57.094 -22.5)"><rect/><foreignObject width="114.188" height="45"><div xmlns="http://www.w3.org/1999/xhtml" style="color:#92400e!important;font-weight:600!important;display:table-cell;white-space:nowrap;line-height:1.5;max-width:200px;text-align:center"><span class="nodeLabel" style="fill:#fef3c7!important;stroke:#f59e0b!important;stroke-width:2.5px!important;color:#92400e!important;font-weight:600!important"><p>escalations<br/>guardrails firing</p></span></div></foreignObject></g></g><g id="my-svg-flowchart-H-7" class="node default human" data-look="classic"><g class="basic label-container outer-path"><path stroke="none" stroke-width="0" d="M-81.32-28.5H81.32l1.826.059 1.819.175 1.803.292 1.781.406 1.752.52 1.714.63c.641.285 1.282.568 1.671.74l1.62.845c.576.35 1.152.7 1.562.947l1.498 1.046 1.429 1.139 1.352 1.228 1.271 1.312 1.185 1.392 1.092 1.464.997 1.53.896 1.593.793 1.646.686 1.693.575 1.734.464 1.767.349 1.793.234 1.812.117 1.824V.913l-.117 1.824-.234 1.812-.35 1.793c-.131.504-.264 1.008-.463 1.767l-.575 1.734-.686 1.693-.793 1.646-.896 1.592-.997 1.531-1.092 1.464-1.185 1.392-1.27 1.312-1.353 1.228-1.429 1.14-1.498 1.045-1.562.947-1.62.845-1.67.74c-.603.22-1.205.442-1.715.63l-1.752.52-1.78.406-1.804.292-1.819.175-1.826.059H-81.32l-1.826-.059-1.819-.175-1.803-.292-1.781-.406-1.752-.52-1.714-.63-1.671-.74-1.62-.845-1.562-.947-1.498-1.046-1.429-1.139-1.352-1.228-1.271-1.312-1.185-1.392-1.092-1.464-.997-1.53-.896-1.593-.793-1.646-.686-1.693-.575-1.734-.464-1.767-.349-1.793-.234-1.812-.117-1.824V-.913l.117-1.824.234-1.812.35-1.793.463-1.767.575-1.734.686-1.693.793-1.646.896-1.592.997-1.531 1.092-1.464 1.185-1.392 1.27-1.312 1.353-1.228 1.429-1.14 1.498-1.045 1.562-.947 1.62-.845 1.67-.74c.474-.173.947-.347 1.715-.63l1.752-.52 1.78-.406 1.804-.292 1.819-.175 1.826-.059" style="fill:#fef3c7!important;stroke:#f59e0b!important;stroke-width:2.5px!important" transform="translate(578.821 213.5)"/><path fill="none" stroke-dasharray="0 0" stroke-width="2.5" d="M-81.32-28.5H81.32m-162.64 0H81.32m0 0 1.826.059M81.32-28.5l1.826.059m0 0 1.819.175m-1.819-.175 1.819.175m0 0 1.803.292m-1.803-.292 1.803.292m0 0 1.781.406m-1.78-.406 1.78.406m0 0 1.752.52m-1.752-.52 1.752.52m0 0 1.714.63m-1.714-.63 1.714.63m0 0c.53.235 1.058.47 1.671.74m-1.67-.74 1.67.74m0 0 1.62.845m-1.62-.845 1.62.845m0 0 1.562.947m-1.562-.947 1.562.947m0 0 1.498 1.046m-1.498-1.046 1.498 1.046m0 0c.415.33.83.66 1.429 1.139m-1.429-1.14 1.429 1.14m0 0 1.352 1.228m-1.352-1.228 1.352 1.228m0 0 1.271 1.312m-1.27-1.312 1.27 1.312m0 0 1.185 1.392m-1.185-1.392 1.185 1.392m0 0 1.092 1.464m-1.092-1.464 1.092 1.464m0 0 .997 1.53m-.997-1.53.997 1.53m0 0 .896 1.593m-.896-1.592.896 1.592m0 0 .793 1.646m-.793-1.646.793 1.646m0 0 .686 1.693m-.686-1.693.686 1.693m0 0 .575 1.734m-.575-1.734.575 1.734m0 0 .464 1.767m-.464-1.767.464 1.767m0 0 .349 1.793m-.35-1.793.35 1.793m0 0 .234 1.812m-.234-1.812.234 1.812m0 0 .117 1.824m-.117-1.824.117 1.824m0 0V.913m0-1.826V.913m0 0-.117 1.824m.117-1.824-.117 1.824m0 0-.234 1.812m.234-1.812-.234 1.812m0 0-.35 1.793m.35-1.793-.35 1.793m0 0-.463 1.767m.464-1.767-.464 1.767m0 0-.575 1.734m.575-1.734-.575 1.734m0 0-.686 1.693m.686-1.693-.686 1.693m0 0-.793 1.646m.793-1.646-.793 1.646m0 0-.896 1.592m.896-1.592-.896 1.592m0 0-.997 1.531m.997-1.53-.997 1.53m0 0-1.092 1.464m1.092-1.464c-.37.496-.74.99-1.092 1.464m0 0-1.185 1.392m1.185-1.392-1.185 1.392m0 0-1.27 1.312m1.27-1.312-1.27 1.312m0 0-1.353 1.228m1.352-1.228-1.352 1.228m0 0-1.429 1.14m1.429-1.14-1.429 1.14m0 0-1.498 1.045m1.498-1.046-1.498 1.046m0 0-1.562.947m1.562-.947-1.562.947m0 0-1.62.845m1.62-.845-1.62.845m0 0c-.455.201-.91.402-1.67.74m1.67-.74c-.568.25-1.135.502-1.67.74m0 0-1.715.63m1.714-.63-1.714.63m0 0-1.752.52m1.752-.52-1.752.52m0 0-1.78.406m1.78-.406-1.78.406m0 0-1.804.292m1.803-.292-1.803.292m0 0-1.819.175m1.819-.175-1.819.175m0 0-1.826.059m1.826-.059-1.826.059m0 0H-81.32m162.64 0H-81.32m0 0-1.826-.059m1.826.059-1.826-.059m0 0-1.819-.175m1.819.175-1.819-.175m0 0-1.803-.292m1.803.292-1.803-.292m0 0-1.781-.406m1.78.406-1.78-.406m0 0-1.752-.52m1.752.52-1.752-.52m0 0-1.714-.63m1.714.63-1.714-.63m0 0-1.671-.74m1.67.74c-.495-.22-.99-.44-1.67-.74m0 0-1.62-.845m1.62.845-1.62-.845m0 0-1.562-.947m1.562.947-1.562-.947m0 0-1.498-1.046m1.498 1.046-1.498-1.046m0 0-1.429-1.139m1.429 1.14-1.429-1.14m0 0-1.352-1.228m1.352 1.228-1.352-1.228m0 0-1.271-1.312m1.27 1.312c-.376-.39-.753-.779-1.27-1.312m0 0-1.185-1.392m1.185 1.392-1.185-1.392m0 0-1.092-1.464m1.092 1.464-1.092-1.464m0 0-.997-1.53m.997 1.53-.997-1.53m0 0-.896-1.593m.896 1.592-.896-1.592m0 0-.793-1.646m.793 1.646-.793-1.646m0 0-.686-1.693m.686 1.693-.686-1.693m0 0-.575-1.734m.575 1.734-.575-1.734m0 0-.464-1.767m.464 1.767-.464-1.767m0 0-.349-1.793m.35 1.793-.35-1.793m0 0-.234-1.812m.234 1.812-.234-1.812m0 0-.117-1.824m.117 1.824-.117-1.824m0 0V-.913m0 1.826V-.913m0 0 .117-1.824m-.117 1.824.117-1.824m0 0 .234-1.812m-.234 1.812.234-1.812m0 0 .35-1.793m-.35 1.793.35-1.793m0 0 .463-1.767m-.464 1.767.464-1.767m0 0 .575-1.734m-.575 1.734.575-1.734m0 0 .686-1.693m-.686 1.693.686-1.693m0 0 .793-1.646m-.793 1.646.793-1.646m0 0 .896-1.592m-.896 1.592.896-1.592m0 0 .997-1.531m-.997 1.53.997-1.53m0 0 1.092-1.464m-1.092 1.464 1.092-1.464m0 0 1.185-1.392m-1.185 1.392 1.185-1.392m0 0c.447-.46.893-.922 1.27-1.312m-1.27 1.312 1.27-1.312m0 0 1.353-1.228m-1.352 1.228 1.352-1.228m0 0 1.429-1.14m-1.429 1.14 1.429-1.14m0 0 1.498-1.045m-1.498 1.046 1.498-1.046m0 0 1.562-.947m-1.562.947 1.562-.947m0 0q.81-.42 1.62-.845m-1.62.845 1.62-.845m0 0 1.67-.74m-1.67.74 1.67-.74m0 0c.344-.125.687-.252 1.715-.63m-1.714.63 1.714-.63m0 0 1.752-.52m-1.752.52 1.752-.52m0 0 1.78-.406m-1.78.406 1.78-.406m0 0 1.804-.292m-1.803.292 1.803-.292m0 0 1.819-.175m-1.819.175 1.819-.175m0 0 1.826-.059m-1.826.059 1.826-.059m0 0" style="fill:#fef3c7!important;stroke:#f59e0b!important;stroke-width:2.5px!important" transform="translate(578.821 213.5)"/></g><g class="label" style="color:#92400e!important;font-weight:600!important" transform="translate(482.126 191)"><rect/><foreignObject width="193.391" height="45"><div xmlns="http://www.w3.org/1999/xhtml" style="color:#92400e!important;font-weight:600!important;display:table-cell;white-space:nowrap;line-height:1.5;max-width:200px;text-align:center"><span class="nodeLabel" style="fill:#fef3c7!important;stroke:#f59e0b!important;stroke-width:2.5px!important;color:#92400e!important;font-weight:600!important"><p>🧑 engineer&apos;s beat:<br/>decisions, not archaeology</p></span></div></foreignObject></g></g><g id="my-svg-flowchart-SIL-8" class="node default limit" data-look="classic" transform="translate(88.164 384.5)"><rect width="160.234" height="69" x="-80.117" y="-34.5" class="basic label-container" rx="5" ry="5" style="fill:#ffe4e6!important;stroke:#f43f5e!important;stroke-width:2.5px!important"/><g class="label" style="color:#9f1239!important;font-weight:600!important" transform="translate(-68.117 -22.5)"><rect/><foreignObject width="136.234" height="45"><div xmlns="http://www.w3.org/1999/xhtml" style="color:#9f1239!important;font-weight:600!important;display:table-cell;white-space:nowrap;line-height:1.5;max-width:200px;text-align:center"><span class="nodeLabel" style="fill:#ffe4e6!important;stroke:#f43f5e!important;stroke-width:2.5px!important;color:#9f1239!important;font-weight:600!important"><p>⚠️ missing log line<br/>= loop is DOWN</p></span></div></foreignObject></g></g></g></g><marker id="my-svg_flowchart-v2-pointEnd__475569" class="marker flowchart-v2" markerHeight="8" markerUnits="userSpaceOnUse" markerWidth="8" orient="auto" refX="5" refY="5" viewBox="0 0 10 10"><path d="m0 0 10 5-10 5z" class="arrowMarkerPath" style="stroke-width:1;stroke-dasharray:1,0"/></marker><defs><filter id="my-svg-drop-shadow" width="130%" height="130%"><feDropShadow dx="4" dy="4" flood-color="#000" flood-opacity=".06" stdDeviation="0"/></filter></defs><defs><filter id="my-svg-drop-shadow-small" width="150%" height="150%"><feDropShadow dx="2" dy="2" flood-color="#000" flood-opacity=".06" stdDeviation="0"/></filter></defs><linearGradient id="my-svg-gradient" x1="0%" x2="100%" y1="0%" y2="0%" gradientUnits="objectBoundingBox"><stop offset="0%" stop-color="hsl(40.5882352941, 60%, 83.3333333333%)"/><stop offset="100%" stop-color="hsl(-79.4117647059, 60%, 83.3333333333%)"/></linearGradient></svg>